<?xml version="1.0" encoding="UTF-8" standalone="no"?>
<!-- Created with Inkscape (http://www.inkscape.org/) -->

<svg
   version="1.1"
   id="svg1"
   width="317.24124"
   height="239.00015"
   viewBox="0 0 317.24124 239.00015"
   sodipodi:docname="Captura_de_Tela__8_-removebg-preview.png"
   inkscape:export-filename="infocash-logo-white.png"
   inkscape:export-xdpi="96"
   inkscape:export-ydpi="96"
   inkscape:dataloss="true"
   xmlns:inkscape="http://www.inkscape.org/namespaces/inkscape"
   xmlns:sodipodi="http://sodipodi.sourceforge.net/DTD/sodipodi-0.dtd"
   xmlns="http://www.w3.org/2000/svg"
   xmlns:svg="http://www.w3.org/2000/svg">
  <defs
     id="defs1" />
  <sodipodi:namedview
     id="namedview1"
     pagecolor="#505050"
     bordercolor="#eeeeee"
     borderopacity="1"
     inkscape:showpageshadow="0"
     inkscape:pageopacity="0"
     inkscape:pagecheckerboard="0"
     inkscape:deskcolor="#505050"
     showgrid="false"
     inkscape:zoom="0.51682243"
     inkscape:cx="184.783"
     inkscape:cy="349.24955"
     inkscape:window-width="1366"
     inkscape:window-height="705"
     inkscape:window-x="-8"
     inkscape:window-y="-8"
     inkscape:window-maximized="1"
     inkscape:current-layer="g1">
    <inkscape:page
       x="0"
       y="0"
       width="317.24124"
       height="239.00015"
       id="page2"
       margin="0"
       bleed="0" />
  </sodipodi:namedview>
  <g
     inkscape:groupmode="layer"
     inkscape:label="Image"
     id="g1"
     transform="translate(-208.08792,-170.14032)">
    <path
       style="fill:#000000;stroke-width:1.36818"
       d="m 313.99761,405.71468 c -22.60445,-4.79527 -44.64889,-14.10937 -62.93634,-26.59153 -4.515,-3.08172 -9.06314,-5.60461 -10.10698,-5.6064 -1.04384,-0.002 -5.86461,3.38299 -10.71283,7.52174 -8.46374,7.22519 -12.93989,9.09033 -14.75756,6.14929 -0.46763,-0.75664 -2.56401,-16.3026 -4.65862,-34.54658 -3.80679,-33.15695 -3.73291,-36.59132 0.78712,-36.59132 1.07009,0 14.69361,4.06162 30.27451,9.02584 15.58089,4.96421 29.40634,9.3458 30.72321,9.73684 4.9018,1.4556 2.67726,6.76047 -6.15681,14.68214 l -8.55114,7.66796 3.42046,2.69995 c 6.60318,5.21228 32.27068,17.52202 43.7818,20.99707 17.85308,5.38962 29.83063,6.75571 51.99089,5.92976 15.49402,-0.57749 22.6531,-1.5186 32.69028,-4.29734 25.05778,-6.93714 47.8019,-19.84593 66.31107,-37.63594 22.21984,-21.35649 34.23726,-41.3943 43.1235,-71.90399 3.33981,-11.46684 3.58646,-14.1954 3.58646,-39.67726 0,-24.13127 -0.36364,-28.69269 -3.07841,-38.61487 -1.69313,-6.18819 -3.07841,-12.1161 -3.07841,-13.17315 0,-1.05705 3.40377,-4.26618 7.56394,-7.1314 7.01586,-4.83201 7.72681,-5.04662 9.8117,-2.96173 2.83865,2.83865 8.00051,20.33409 10.07462,34.14654 2.48741,16.56484 0.98826,56.64191 -2.60316,69.59105 -19.30322,69.59922 -69.87522,117.3994 -139.52174,131.87465 -15.94612,3.31422 -49.24974,2.68158 -67.97756,-1.29132 z"
       id="path17" />
  </g>
</svg>
