<?xml version="1.0" encoding="UTF-8" standalone="no"?>
<!-- Created with Inkscape (http://www.inkscape.org/) -->

<svg
   version="1.1"
   id="svg1"
   width="317.90955"
   height="238.06331"
   viewBox="0 0 317.90955 238.06331"
   sodipodi:docname="Captura_de_Tela__8_-removebg-preview.png"
   inkscape:export-filename="infocash-logo-white.png"
   inkscape:export-xdpi="96"
   inkscape:export-ydpi="96"
   inkscape:dataloss="true"
   xmlns:inkscape="http://www.inkscape.org/namespaces/inkscape"
   xmlns:sodipodi="http://sodipodi.sourceforge.net/DTD/sodipodi-0.dtd"
   xmlns="http://www.w3.org/2000/svg"
   xmlns:svg="http://www.w3.org/2000/svg">
  <defs
     id="defs1" />
  <sodipodi:namedview
     id="namedview1"
     pagecolor="#505050"
     bordercolor="#eeeeee"
     borderopacity="1"
     inkscape:showpageshadow="0"
     inkscape:pageopacity="0"
     inkscape:pagecheckerboard="0"
     inkscape:deskcolor="#505050"
     showgrid="false"
     inkscape:zoom="0.51682243"
     inkscape:cx="184.783"
     inkscape:cy="349.24955"
     inkscape:window-width="1366"
     inkscape:window-height="705"
     inkscape:window-x="-8"
     inkscape:window-y="-8"
     inkscape:window-maximized="1"
     inkscape:current-layer="g1">
    <inkscape:page
       x="0"
       y="0"
       width="317.90955"
       height="238.06331"
       id="page2"
       margin="0"
       bleed="0" />
  </sodipodi:namedview>
  <g
     inkscape:groupmode="layer"
     inkscape:label="Image"
     id="g1"
     transform="translate(-174.51202,-57.463848)">
    <path
       style="fill:#000000;stroke-width:1.36818"
       d="m 183.54864,291.76466 c -0.81829,-2.06937 -3.18534,-10.22715 -5.2601,-18.1284 -3.48008,-13.25307 -3.77262,-16.37961 -3.77649,-40.36135 -0.004,-22.69409 0.40408,-27.64613 3.21061,-38.99317 13.40218,-54.18629 48.79219,-98.02496 97.48886,-120.762359 26.98449,-12.599571 42.88253,-16.055193 73.86561,-16.055532 23.38378,-2.56e-4 37.28735,1.958888 55.22044,7.781086 12.7812,4.14957 33.46074,14.333194 45.14999,22.234077 4.51499,3.051734 8.842,5.550567 9.61557,5.552961 0.77357,0.0024 5.89522,-3.654185 11.38147,-8.125734 10.18906,-8.304583 13.34242,-9.102223 14.5902,-3.690586 0.77272,3.351274 5.54052,43.234857 6.91592,57.852987 0.8561,9.09883 0.72366,9.83775 -1.91337,10.67471 -1.77262,0.5626 -11.94855,-2.00544 -27.1842,-6.86031 -33.46419,-10.66343 -38.71695,-12.72579 -38.71695,-15.20125 0,-1.15436 4.08477,-5.8934 9.07728,-10.5312 l 9.0773,-8.43237 -7.51471,-4.98949 c -12.58682,-8.357172 -25.60766,-14.259285 -42.10804,-19.0868 -15.58599,-4.559999 -15.99163,-4.602824 -43.09771,-4.550082 -26.03537,0.05066 -27.99455,0.242206 -40.36135,3.946076 -58.35079,17.476126 -98.72679,61.159616 -110.6745,119.740656 -4.68744,22.98305 -3.49109,50.24614 3.19247,72.75213 1.17264,3.94871 2.13207,7.6552 2.13207,8.23665 0,2.05683 -12.75126,10.7598 -15.76484,10.7598 -2.06289,0 -3.54178,-1.22413 -4.54553,-3.7625 z"
       id="path16" />
  </g>
</svg>
