<?xml version="1.0" encoding="UTF-8" standalone="no"?>
<!-- Created with Inkscape (http://www.inkscape.org/) -->

<svg
   version="1.1"
   id="svg1"
   width="381.03186"
   height="450.7861"
   viewBox="0 0 381.03186 450.7861"
   sodipodi:docname="Captura_de_Tela__8_-removebg-preview.png"
   inkscape:export-filename="infocash-logo-white.png"
   inkscape:export-xdpi="96"
   inkscape:export-ydpi="96"
   inkscape:dataloss="true"
   xmlns:inkscape="http://www.inkscape.org/namespaces/inkscape"
   xmlns:sodipodi="http://sodipodi.sourceforge.net/DTD/sodipodi-0.dtd"
   xmlns="http://www.w3.org/2000/svg"
   xmlns:svg="http://www.w3.org/2000/svg">
  <defs
     id="defs1" />
  <sodipodi:namedview
     id="namedview1"
     pagecolor="#505050"
     bordercolor="#eeeeee"
     borderopacity="1"
     inkscape:showpageshadow="0"
     inkscape:pageopacity="0"
     inkscape:pagecheckerboard="0"
     inkscape:deskcolor="#505050"
     showgrid="false"
     inkscape:zoom="0.51682243"
     inkscape:cx="184.783"
     inkscape:cy="349.24955"
     inkscape:window-width="1366"
     inkscape:window-height="705"
     inkscape:window-x="-8"
     inkscape:window-y="-8"
     inkscape:window-maximized="1"
     inkscape:current-layer="g1">
    <inkscape:page
       x="0"
       y="0"
       width="381.03186"
       height="450.7861"
       id="page2"
       margin="0"
       bleed="0" />
  </sodipodi:namedview>
  <g
     inkscape:groupmode="layer"
     inkscape:label="Image"
     id="g1"
     transform="translate(-160.76131,-57.463848)">
    <path
       style="fill:#000000;stroke-width:1.36818"
       d="m 329.93945,335.13282 c -9.39735,-1.6859 -26.34014,-8.46085 -35.09638,-14.03406 -21.17132,-13.47522 -38.05705,-36.30578 -45.223,-61.14431 -3.44044,-11.92519 -3.55823,-40.73215 -0.21595,-52.81044 8.59484,-31.05987 30.6695,-56.49691 60.49338,-69.70761 17.15701,-7.59983 42.88236,-9.7542 63.92904,-5.35375 27.95296,5.84443 55.91446,28.37772 69.23381,55.7934 7.12985,14.6756 8.32268,19.232 9.73594,37.18977 1.36802,17.38281 -0.30307,29.94587 -5.99136,45.04251 -10.97268,29.12129 -37.54886,53.79472 -67.81871,62.96312 -9.02708,2.7342 -38.41221,3.96922 -49.04677,2.06137 z m 30.98678,-19.35658 c 0.903,-0.903 1.64181,-5.13808 1.64181,-9.41128 0,-7.48045 0.16541,-7.83711 4.44659,-9.58775 6.62974,-2.71101 18.81825,-14.7961 21.72853,-21.54416 1.73823,-4.03043 2.55669,-9.19425 2.55669,-16.13063 0,-11.71094 -2.68969,-18.45386 -9.72115,-24.37045 -5.01562,-4.22036 -17.17011,-10.53908 -25.16747,-13.08373 -8.16533,-2.5981 -15.92119,-6.78342 -18.67243,-10.07625 -4.54239,-5.43659 -2.42358,-15.65473 3.83768,-18.50756 7.83335,-3.56911 21.07858,0.29395 23.83646,6.95207 2.75577,6.653 4.90864,7.94706 13.22123,7.94706 7.82103,0 12.66568,-2.44918 12.66568,-6.40305 0,-1.03092 -1.23028,-5.37479 -2.73397,-9.65304 -3.22776,-9.18355 -11.63919,-18.45748 -20.18307,-22.25261 -5.79568,-2.5744 -5.81477,-2.60692 -5.81477,-9.91117 0,-4.03056 -0.73881,-8.06711 -1.64181,-8.97011 -2.16246,-2.16246 -19.18118,-2.16246 -21.34363,0 -0.903,0.903 -1.64182,5.13695 -1.64182,9.40878 v 7.76697 l -6.61025,2.84366 c -7.35706,3.16492 -17.18943,12.96481 -20.17362,20.10698 -2.29938,5.50318 -2.61334,24.6978 -0.49584,30.31429 3.41465,9.05708 13.83841,16.24666 35.30367,24.35001 18.19537,6.86893 23.93146,15.74021 16.07971,24.86842 -2.83908,3.30061 -4.24773,3.78993 -10.91057,3.78993 -8.51605,0 -13.93146,-2.94215 -17.02498,-9.24953 -2.51466,-5.12716 -6.05054,-6.58176 -14.85712,-6.11199 -10.46344,0.55814 -12.1964,3.10931 -8.82843,12.99674 3.80215,11.16208 9.15719,17.74174 18.8523,23.16356 l 8.66513,4.84581 v 7.33926 c 0,5.54639 0.5849,7.67992 2.39432,8.73382 3.35608,1.95473 18.59374,1.83333 20.59113,-0.16405 z"
       id="path15"
       inkscape:export-filename="infocash-brand\infocash-brand\infocash-brand\infocash-brand\infocash-brand\infocash-brand\infocash-brand\infocash-brand\infocash-logo-black-v2.svg"
       inkscape:export-xdpi="96"
       inkscape:export-ydpi="96" />
    <path
       style="fill:#000000;stroke-width:1.36818"
       d="m 183.54864,291.76466 c -0.81829,-2.06937 -3.18534,-10.22715 -5.2601,-18.1284 -3.48008,-13.25307 -3.77262,-16.37961 -3.77649,-40.36135 -0.004,-22.69409 0.40408,-27.64613 3.21061,-38.99317 13.40218,-54.18629 48.79219,-98.02496 97.48886,-120.762359 26.98449,-12.599571 42.88253,-16.055193 73.86561,-16.055532 23.38378,-2.56e-4 37.28735,1.958888 55.22044,7.781086 12.7812,4.14957 33.46074,14.333194 45.14999,22.234077 4.51499,3.051734 8.842,5.550567 9.61557,5.552961 0.77357,0.0024 5.89522,-3.654185 11.38147,-8.125734 10.18906,-8.304583 13.34242,-9.102223 14.5902,-3.690586 0.77272,3.351274 5.54052,43.234857 6.91592,57.852987 0.8561,9.09883 0.72366,9.83775 -1.91337,10.67471 -1.77262,0.5626 -11.94855,-2.00544 -27.1842,-6.86031 -33.46419,-10.66343 -38.71695,-12.72579 -38.71695,-15.20125 0,-1.15436 4.08477,-5.8934 9.07728,-10.5312 l 9.0773,-8.43237 -7.51471,-4.98949 c -12.58682,-8.357172 -25.60766,-14.259285 -42.10804,-19.0868 -15.58599,-4.559999 -15.99163,-4.602824 -43.09771,-4.550082 -26.03537,0.05066 -27.99455,0.242206 -40.36135,3.946076 -58.35079,17.476126 -98.72679,61.159616 -110.6745,119.740656 -4.68744,22.98305 -3.49109,50.24614 3.19247,72.75213 1.17264,3.94871 2.13207,7.6552 2.13207,8.23665 0,2.05683 -12.75126,10.7598 -15.76484,10.7598 -2.06289,0 -3.54178,-1.22413 -4.54553,-3.7625 z"
       id="path16"
       inkscape:export-filename="infocash-brand\infocash-brand\infocash-arrow1-black.svg"
       inkscape:export-xdpi="96"
       inkscape:export-ydpi="96" />
    <path
       style="fill:#000000;stroke-width:1.36818"
       d="m 313.99761,405.71468 c -22.60445,-4.79527 -44.64889,-14.10937 -62.93634,-26.59153 -4.515,-3.08172 -9.06314,-5.60461 -10.10698,-5.6064 -1.04384,-0.002 -5.86461,3.38299 -10.71283,7.52174 -8.46374,7.22519 -12.93989,9.09033 -14.75756,6.14929 -0.46763,-0.75664 -2.56401,-16.3026 -4.65862,-34.54658 -3.80679,-33.15695 -3.73291,-36.59132 0.78712,-36.59132 1.07009,0 14.69361,4.06162 30.27451,9.02584 15.58089,4.96421 29.40634,9.3458 30.72321,9.73684 4.9018,1.4556 2.67726,6.76047 -6.15681,14.68214 l -8.55114,7.66796 3.42046,2.69995 c 6.60318,5.21228 32.27068,17.52202 43.7818,20.99707 17.85308,5.38962 29.83063,6.75571 51.99089,5.92976 15.49402,-0.57749 22.6531,-1.5186 32.69028,-4.29734 25.05778,-6.93714 47.8019,-19.84593 66.31107,-37.63594 22.21984,-21.35649 34.23726,-41.3943 43.1235,-71.90399 3.33981,-11.46684 3.58646,-14.1954 3.58646,-39.67726 0,-24.13127 -0.36364,-28.69269 -3.07841,-38.61487 -1.69313,-6.18819 -3.07841,-12.1161 -3.07841,-13.17315 0,-1.05705 3.40377,-4.26618 7.56394,-7.1314 7.01586,-4.83201 7.72681,-5.04662 9.8117,-2.96173 2.83865,2.83865 8.00051,20.33409 10.07462,34.14654 2.48741,16.56484 0.98826,56.64191 -2.60316,69.59105 -19.30322,69.59922 -69.87522,117.3994 -139.52174,131.87465 -15.94612,3.31422 -49.24974,2.68158 -67.97756,-1.29132 z"
       id="path17"
       inkscape:export-filename="infocash-brand\infocash-brand\infocash-arrow2-black.svg"
       inkscape:export-xdpi="96"
       inkscape:export-ydpi="96" />
    <path
       style="fill:#000000;stroke-width:0.684091"
       d="m 163.32664,506.40982 -2.56534,-1.05249 v -26.24466 -26.24466 h 5.0048 5.0048 l 1.49406,3.6047 c 1.43815,3.4698 1.49406,4.49381 1.49406,27.36362 v 23.75893 l -3.93352,-0.0665 c -2.16343,-0.0366 -5.08792,-0.5401 -6.49886,-1.11896 z"
       id="path18"
       inkscape:export-filename="infocash-brand\infocash-brand\infocash-name-black-v2.svg"
       inkscape:export-xdpi="96"
       inkscape:export-ydpi="96" />
    <path
       style="fill:#000000;stroke-width:0.684091"
       d="m 187.95391,506.08629 -3.24944,-1.39823 v -25.22593 -25.22594 h 5.75396 c 6.96101,0 5.66657,-1.25167 17.51776,16.93897 4.69617,7.20826 8.76938,13.11832 9.05157,13.13347 0.28219,0.0152 0.51307,-6.74495 0.51307,-15.02245 v -15.04999 h 5.81477 5.81477 v 1.94625 c 0,1.07745 0.61074,2.49896 1.36818,3.18443 1.31759,1.1924 1.36818,2.10698 1.36818,24.73329 v 23.4951 h -5.49922 c -5.4315,0 -5.53156,-0.0316 -8.12655,-2.56534 -1.44504,-1.41094 -5.75544,-7.54915 -9.57868,-13.64047 -10.58215,-16.85991 -9.58231,-16.96238 -9.60914,0.98479 l -0.0228,15.22102 -3.93352,-0.0554 c -2.33245,-0.0328 -5.25615,-0.6245 -7.18295,-1.4536 z"
       id="path19" />
    <path
       style="fill:#000000;stroke-width:0.684091"
       d="m 245.41752,506.40982 -2.56534,-1.05249 v -25.56057 -25.56057 h 14.3659 14.36591 v 1.62646 c 0,0.89456 0.46176,2.00969 1.02613,2.47808 0.61833,0.51317 1.02614,2.01005 1.02614,3.76648 0,3.58354 -0.40747,3.73624 -10.00483,3.74918 l -6.92641,0.009 -0.42756,2.13778 c -0.23516,1.17578 -0.42756,3.01206 -0.42756,4.08062 v 1.94283 l 7.01023,0.19495 7.01022,0.19495 0.61197,2.90739 c 0.35628,1.69263 1.0001,2.90738 1.54091,2.90738 0.64144,0 0.92894,0.92935 0.92894,3.00282 v 3.00281 l -8.11308,0.48747 -8.11308,0.48746 -0.43395,5.57392 c -0.23868,3.06566 -0.4358,7.65185 -0.43806,10.19154 l -0.004,4.61761 -3.93352,-0.0665 c -2.16344,-0.0366 -5.08792,-0.5401 -6.49886,-1.11896 z"
       id="path20" />
    <path
       style="fill:#000000;stroke-width:0.684091"
       d="m 298.5066,506.36583 c -1.93568,-1.01694 -5.72578,-3.93943 -8.42243,-6.49442 -6.69327,-6.34165 -8.92291,-11.4013 -8.92291,-20.24847 0,-5.56932 0.22644,-6.65331 2.37454,-11.36701 2.86421,-6.2851 7.00368,-10.46091 13.25229,-13.36865 3.72099,-1.73153 5.15798,-2.01927 10.08431,-2.01927 4.98272,0 6.35847,0.28247 10.36862,2.1289 3.75093,1.72707 5.62358,3.22638 9.92144,7.94343 6.32755,6.94471 8.04196,11.23285 8.04196,20.1149 0,4.95721 -0.2322,5.87768 -2.74194,10.86929 -3.20146,6.3674 -6.21562,9.40903 -12.16775,12.27868 -3.95248,1.90557 -4.87986,2.07349 -11.2875,2.04387 -6.22711,-0.0288 -7.36137,-0.232 -10.50063,-1.88125 z m 15.71474,-13.18353 c 2.58785,-1.62486 3.66114,-2.8851 4.96178,-5.82608 1.49249,-3.3748 1.61651,-4.35314 1.23144,-9.71423 -0.41776,-5.81611 -0.49636,-6.03239 -3.22297,-8.86887 -2.73385,-2.84403 -2.89308,-2.90739 -7.30619,-2.90739 -3.97449,0 -4.85666,0.25388 -7.412,2.1331 -4.58064,3.36864 -6.26215,7.42102 -6.26215,15.09155 v 6.32469 l 2.8788,2.93328 c 2.81372,2.86698 2.97995,2.93299 7.35397,2.92028 3.78717,-0.011 4.98285,-0.33175 7.77732,-2.08633 z"
       id="path21" />
    <path
       style="fill:#000000;stroke-width:0.684091"
       d="m 360.85782,506.24969 c -2.89493,-1.36002 -5.76753,-3.61708 -9.74747,-7.65879 -4.88905,-4.96494 -5.9172,-6.44281 -7.69602,-11.06232 -2.47781,-6.43477 -2.52679,-8.15546 -0.42595,-14.96412 2.27635,-7.37749 7.429,-13.25853 14.91341,-17.02162 4.90424,-2.4658 5.76201,-2.67483 10.97657,-2.67483 7.97483,0 15.28196,2.44884 17.49395,5.86275 l 1.57131,2.42513 -1.7035,3.72093 c -1.58337,3.45854 -1.82125,3.67617 -3.37322,3.08612 -0.91834,-0.34916 -4.59273,-0.84939 -8.16531,-1.11163 -6.25111,-0.45887 -6.62734,-0.4051 -9.99628,1.4285 -2.33378,1.2702 -4.18559,2.97264 -5.55534,5.10721 -1.86218,2.90195 -2.05465,3.73495 -2.05465,8.8922 0,5.05005 0.19689,5.94845 1.74986,7.98449 3.68471,4.83091 11.59207,6.44924 19.067,3.90228 l 3.27422,-1.11564 1.62462,1.97075 c 1.77481,2.15295 5.97354,9.20005 5.62632,9.44315 -0.11875,0.0831 -1.656,0.97555 -3.41612,1.98313 -3.01264,1.72459 -3.69431,1.829 -11.62954,1.78129 -7.76215,-0.0467 -8.75419,-0.20331 -12.53386,-1.97898 z"
       id="path22" />
    <path
       style="fill:#000000;stroke-width:0.684091"
       d="m 394.87322,506.05666 c -1.60902,-0.81667 -2.8004,-1.80506 -2.64752,-2.19642 0.15289,-0.39136 4.64614,-11.71688 9.98501,-25.16781 l 9.70703,-24.45624 5.25412,0.0162 5.25411,0.0162 1.97751,2.6737 c 1.76185,2.38212 21.25023,49.20218 20.70632,49.74609 -0.12081,0.12081 -2.0672,0.41277 -4.3253,0.64878 -3.67349,0.38396 -4.3894,0.24135 -6.80135,-1.3548 -1.94159,-1.28488 -3.06831,-2.7441 -4.02761,-5.21617 l -1.3319,-3.43223 h -9.64534 -9.64534 l -1.737,4.95966 -1.73699,4.95966 -4.03013,0.14414 c -2.9931,0.10706 -4.78291,-0.23793 -6.95562,-1.3407 z m 28.57889,-22.42731 c 0,-2.0451 -3.28982,-8.18635 -4.38537,-8.18635 -0.73755,0 -4.50781,7.7302 -4.50781,9.24242 0,0.18417 2.00097,0.33485 4.44659,0.33485 4.01476,0 4.44659,-0.13508 4.44659,-1.39092 z"
       id="path23" />
    <path
       style="fill:#000000;stroke-width:0.684091"
       d="m 459.02482,506.25873 c -2.06937,-1.07514 -4.99386,-3.03238 -6.49886,-4.34942 l -2.73636,-2.39461 1.36818,-2.58092 c 0.7525,-1.41951 1.92509,-3.29018 2.60575,-4.15706 l 1.23757,-1.57614 4.73115,2.38257 c 3.56347,1.79454 5.59569,2.38257 8.23409,2.38257 4.72967,0 7.47666,-1.89965 7.47666,-5.1704 0,-2.25597 -0.21708,-2.45071 -5.98579,-5.36974 -7.48552,-3.78775 -14.29277,-10.30091 -15.25857,-14.59935 -0.78373,-3.48815 0.96934,-9.25866 3.8643,-12.71996 3.26051,-3.89836 7.26326,-5.27652 14.05093,-4.83778 6.61936,0.42785 13.59049,3.07671 13.59049,5.16403 0,0.66463 0.53699,1.50892 1.1933,1.87622 1.1071,0.61956 1.05838,0.94292 -0.6745,4.47619 l -1.86781,3.80839 -3.85721,-1.70584 c -2.35975,-1.0436 -5.12844,-1.70584 -7.13172,-1.70584 -2.81669,0 -3.52214,0.29428 -5.04556,2.10476 -0.97407,1.15762 -1.77104,2.33532 -1.77104,2.61712 0,1.14217 3.40917,3.50773 9.2676,6.4306 5.03392,2.5115 6.91737,3.9173 10.09033,7.53135 l 3.90115,4.44347 v 5.06367 c 0,4.33908 -0.2475,5.40082 -1.72965,7.41986 -2.0494,2.79177 -3.8653,4.31808 -7.30729,6.14197 -2.1047,1.11526 -3.8569,1.33929 -10.26136,1.31201 -7.12833,-0.0304 -8.01312,-0.18349 -11.48578,-1.98772 z"
       id="path24" />
    <path
       style="fill:#000000;stroke-width:0.684091"
       d="m 502.29356,506.04987 -2.90739,-1.46052 v -25.17658 -25.17658 h 5.14778 5.14779 l 0.42869,2.14345 c 0.25438,1.27193 0.9428,2.27789 1.69312,2.4741 1.1307,0.29569 1.26444,1.10664 1.26444,7.66759 v 7.33692 l 2.6447,0.79238 c 1.45459,0.4358 4.68692,0.79237 7.18296,0.79237 h 4.53824 v -10.60341 -10.6034 h 5.5042 5.50419 l 1.67207,3.59148 c 1.64329,3.52963 1.67219,3.91071 1.67876,22.13259 0.004,10.19762 -0.189,20.41332 -0.42817,22.70157 l -0.43485,4.16044 -2.71921,0.45941 c -2.04825,0.34605 -3.7133,0.0645 -6.74809,-1.14087 l -4.0289,-1.60028 v -9.07604 -9.07604 h -7.18295 -7.18295 v 10.60341 10.6034 l -3.93353,-0.0424 c -2.58206,-0.0279 -4.93242,-0.54423 -6.8409,-1.50295 z"
       id="path25" />
  </g>
</svg>
