<?xml version="1.0" encoding="UTF-8" standalone="no"?>
<!-- Created with Inkscape (http://www.inkscape.org/) -->

<svg
   version="1.1"
   id="svg1"
   width="350.85831"
   height="351.51251"
   viewBox="0 0 350.85831 351.51251"
   sodipodi:docname="Captura_de_Tela__8_-removebg-preview.png"
   inkscape:export-filename="infocash-logo-white.png"
   inkscape:export-xdpi="96"
   inkscape:export-ydpi="96"
   inkscape:dataloss="true"
   xmlns:inkscape="http://www.inkscape.org/namespaces/inkscape"
   xmlns:sodipodi="http://sodipodi.sourceforge.net/DTD/sodipodi-0.dtd"
   xmlns="http://www.w3.org/2000/svg"
   xmlns:svg="http://www.w3.org/2000/svg">
  <defs
     id="defs1" />
  <sodipodi:namedview
     id="namedview1"
     pagecolor="#505050"
     bordercolor="#eeeeee"
     borderopacity="1"
     inkscape:showpageshadow="0"
     inkscape:pageopacity="0"
     inkscape:pagecheckerboard="0"
     inkscape:deskcolor="#505050"
     showgrid="false"
     inkscape:zoom="0.51682243"
     inkscape:cx="184.783"
     inkscape:cy="349.24955"
     inkscape:window-width="1366"
     inkscape:window-height="705"
     inkscape:window-x="-8"
     inkscape:window-y="-8"
     inkscape:window-maximized="1"
     inkscape:current-layer="g1">
    <inkscape:page
       x="0"
       y="0"
       width="350.85831"
       height="351.51251"
       id="page2"
       margin="0"
       bleed="0" />
  </sodipodi:namedview>
  <g
     inkscape:groupmode="layer"
     inkscape:label="Image"
     id="g1"
     transform="translate(-43.166622,-45.150215)">
    <path
       style="fill:none;stroke-width:1.9349"
       d="m 179.94575,299.08253 c -36.48512,-8.35726 -65.71685,-36.30216 -76.87161,-73.48762 -3.721652,-12.40649 -4.060229,-37.54455 -0.69302,-51.45386 7.86659,-32.49536 35.02834,-62.4797 66.6735,-73.60208 48.36988,-17.000644 102.36774,5.08631 125.81602,51.46302 8.25527,16.32752 10.73436,26.571 10.79634,44.61005 0.10667,31.03714 -9.52751,54.46155 -30.87617,75.07194 -26.07831,25.17649 -60.78088,35.20125 -94.84506,27.39855 z m 34.44123,-18.90893 c 1.27703,-1.27704 2.32188,-5.61888 2.32188,-9.64854 0,-6.42424 0.77454,-7.65798 6.28843,-10.01667 7.5852,-3.24474 15.93348,-11.82166 18.74218,-19.25551 2.99829,-7.93564 2.52669,-27.69964 -0.81516,-34.16207 -3.83819,-7.42224 -10.93087,-12.20745 -30.03855,-20.26604 -8.77808,-3.70213 -17.5892,-8.20542 -19.58027,-10.00732 -4.12248,-3.73079 -4.60681,-9.92641 -1.13255,-14.48797 6.3905,-8.39048 24.46761,-5.59263 28.61889,4.42943 2.22765,5.37802 2.80463,5.59912 13.1839,5.05197 9.71578,-0.51217 10.92167,-1.04809 11.49666,-5.10942 1.41936,-10.02525 -12.08488,-29.58294 -22.17513,-32.11543 -3.81584,-0.95772 -4.5884,-2.38339 -4.5884,-8.46738 0,-9.5468 -2.73243,-11.95952 -13.5443,-11.95952 -10.76157,0 -13.54431,2.41648 -13.54431,11.76164 0,6.01213 -0.86229,7.47505 -5.55067,9.41705 -12.1917,5.04996 -23.48462,22.0673 -23.46204,35.35501 0.032,18.84675 7.64664,27.94807 31.25729,37.36007 16.97026,6.76492 26.77893,13.78401 26.77893,19.16301 0,1.76724 -2.24073,5.45389 -4.9794,8.19256 -6.97304,6.97304 -16.92903,5.35313 -25.21661,-4.10293 -5.21979,-5.95574 -7.15976,-6.85708 -14.75856,-6.85708 -11.82607,0 -13.87256,2.82584 -10.08872,13.9308 3.32851,9.76864 11.78181,19.40954 20.3403,23.1979 4.34684,1.92409 5.67948,3.79502 5.67948,7.97355 0,9.97829 3.03079,12.94477 13.2254,12.94477 5.0707,0 10.2643,-1.04485 11.54133,-2.32188 z"
       id="path9"
       inkscape:export-filename="infocash-brand\infocash-brand\infocash-vertical-white.svg"
       inkscape:export-xdpi="96"
       inkscape:export-ydpi="96" />
    <path
       style="fill:none;stroke-width:1.9349"
       d="m 179.94575,299.08253 c -36.48512,-8.35726 -65.71685,-36.30216 -76.87161,-73.48762 -3.721652,-12.40649 -4.060229,-37.54455 -0.69302,-51.45386 7.86659,-32.49536 35.02834,-62.4797 66.6735,-73.60208 48.36988,-17.000644 102.36774,5.08631 125.81602,51.46302 8.25527,16.32752 10.73436,26.571 10.79634,44.61005 0.10667,31.03714 -9.52751,54.46155 -30.87617,75.07194 -26.07831,25.17649 -60.78088,35.20125 -94.84506,27.39855 z m 34.44123,-18.90893 c 1.27703,-1.27704 2.32188,-5.61888 2.32188,-9.64854 0,-6.42424 0.77454,-7.65798 6.28843,-10.01667 7.5852,-3.24474 15.93348,-11.82166 18.74218,-19.25551 2.99829,-7.93564 2.52669,-27.69964 -0.81516,-34.16207 -3.83819,-7.42224 -10.93087,-12.20745 -30.03855,-20.26604 -8.77808,-3.70213 -17.5892,-8.20542 -19.58027,-10.00732 -4.12248,-3.73079 -4.60681,-9.92641 -1.13255,-14.48797 6.3905,-8.39048 24.46761,-5.59263 28.61889,4.42943 2.22765,5.37802 2.80463,5.59912 13.1839,5.05197 9.71578,-0.51217 10.92167,-1.04809 11.49666,-5.10942 1.41936,-10.02525 -12.08488,-29.58294 -22.17513,-32.11543 -3.81584,-0.95772 -4.5884,-2.38339 -4.5884,-8.46738 0,-9.5468 -2.73243,-11.95952 -13.5443,-11.95952 -10.76157,0 -13.54431,2.41648 -13.54431,11.76164 0,6.01213 -0.86229,7.47505 -5.55067,9.41705 -12.1917,5.04996 -23.48462,22.0673 -23.46204,35.35501 0.032,18.84675 7.64664,27.94807 31.25729,37.36007 16.97026,6.76492 26.77893,13.78401 26.77893,19.16301 0,1.76724 -2.24073,5.45389 -4.9794,8.19256 -6.97304,6.97304 -16.92903,5.35313 -25.21661,-4.10293 -5.21979,-5.95574 -7.15976,-6.85708 -14.75856,-6.85708 -11.82607,0 -13.87256,2.82584 -10.08872,13.9308 3.32851,9.76864 11.78181,19.40954 20.3403,23.1979 4.34684,1.92409 5.67948,3.79502 5.67948,7.97355 0,9.97829 3.03079,12.94477 13.2254,12.94477 5.0707,0 10.2643,-1.04485 11.54133,-2.32188 z"
       id="path10" />
    <path
       style="fill:none;stroke-width:1.9349"
       d="m 179.94575,299.08253 c -36.48512,-8.35726 -65.71685,-36.30216 -76.87161,-73.48762 -3.721652,-12.40649 -4.060229,-37.54455 -0.69302,-51.45386 7.86659,-32.49536 35.02834,-62.4797 66.6735,-73.60208 48.36988,-17.000644 102.36774,5.08631 125.81602,51.46302 8.25527,16.32752 10.73436,26.571 10.79634,44.61005 0.10667,31.03714 -9.52751,54.46155 -30.87617,75.07194 -26.07831,25.17649 -60.78088,35.20125 -94.84506,27.39855 z m 34.44123,-18.90893 c 1.27703,-1.27704 2.32188,-5.61888 2.32188,-9.64854 0,-6.42424 0.77454,-7.65798 6.28843,-10.01667 7.5852,-3.24474 15.93348,-11.82166 18.74218,-19.25551 2.99829,-7.93564 2.52669,-27.69964 -0.81516,-34.16207 -3.83819,-7.42224 -10.93087,-12.20745 -30.03855,-20.26604 -8.77808,-3.70213 -17.5892,-8.20542 -19.58027,-10.00732 -4.12248,-3.73079 -4.60681,-9.92641 -1.13255,-14.48797 6.3905,-8.39048 24.46761,-5.59263 28.61889,4.42943 2.22765,5.37802 2.80463,5.59912 13.1839,5.05197 9.71578,-0.51217 10.92167,-1.04809 11.49666,-5.10942 1.41936,-10.02525 -12.08488,-29.58294 -22.17513,-32.11543 -3.81584,-0.95772 -4.5884,-2.38339 -4.5884,-8.46738 0,-9.5468 -2.73243,-11.95952 -13.5443,-11.95952 -10.76157,0 -13.54431,2.41648 -13.54431,11.76164 0,6.01213 -0.86229,7.47505 -5.55067,9.41705 -12.1917,5.04996 -23.48462,22.0673 -23.46204,35.35501 0.032,18.84675 7.64664,27.94807 31.25729,37.36007 16.97026,6.76492 26.77893,13.78401 26.77893,19.16301 0,1.76724 -2.24073,5.45389 -4.9794,8.19256 -6.97304,6.97304 -16.92903,5.35313 -25.21661,-4.10293 -5.21979,-5.95574 -7.15976,-6.85708 -14.75856,-6.85708 -11.82607,0 -13.87256,2.82584 -10.08872,13.9308 3.32851,9.76864 11.78181,19.40954 20.3403,23.1979 4.34684,1.92409 5.67948,3.79502 5.67948,7.97355 0,9.97829 3.03079,12.94477 13.2254,12.94477 5.0707,0 10.2643,-1.04485 11.54133,-2.32188 z"
       id="path11" />
    <path
       style="fill:none;stroke-width:0.483725"
       d="m 187.92722,301.36686 c -11.63547,-1.68449 -15.84879,-2.87483 -26.45054,-7.47275 -11.00747,-4.77388 -19.36143,-10.28286 -29.66158,-19.56019 -6.58575,-5.93177 -7.76282,-7.25277 -12.74492,-14.3033 -7.76815,-10.9933 -12.82361,-21.17081 -16.06881,-32.34925 -2.06387,-7.10921 -2.59023,-9.83016 -3.637454,-18.80311 L 98.139513,198.38717 99.3478,188.27443 c 2.42672,-20.31038 6.96448,-32.82525 17.63738,-48.64279 5.2182,-7.73353 6.23493,-8.93012 13.62061,-16.03001 10.29184,-9.89363 18.8815,-15.73272 30.86651,-20.98249 9.24508,-4.049613 15.90911,-5.869498 27.5376,-7.520262 7.92764,-1.125397 8.36109,-1.137134 19.47563,-0.527375 9.7359,0.534124 12.44374,0.863355 18.86528,2.293717 9.98791,2.224748 18.64199,5.79332 28.53979,11.76857 11.13391,6.72149 17.97418,12.42749 25.68268,21.4239 11.22891,13.105 18.83324,27.78382 22.66462,43.75001 1.76104,7.33865 1.91364,8.57703 2.42679,19.69358 l 0.54758,11.86249 -1.77382,10.59096 c -1.64029,9.79367 -2.02109,11.24995 -5.05841,19.34473 -2.75557,7.34388 -4.06483,10.03814 -8.12901,16.72828 -4.478,7.37135 -5.49665,8.67084 -13.46748,17.18058 -7.95788,8.49591 -9.18278,9.59214 -15.87894,14.21103 -8.66948,5.98005 -19.76147,11.64127 -28.32651,14.45751 -5.05102,1.66081 -7.84541,2.21626 -17.39126,3.45691 -13.61248,1.76919 -17.23941,1.77329 -29.25962,0.0331 z m 22.80551,-19.63238 c 1.63793,-0.20468 2.23616,-0.58365 3.26515,-2.06849 1.22063,-1.76137 1.25981,-2.04379 1.25981,-9.0823 v -7.2644 l 5.4419,-2.60439 c 5.00459,-2.39511 5.95331,-3.08367 11.80559,-8.56839 l 6.36367,-5.96398 2.46611,-6.15072 2.46611,-6.15071 0.003,-9.19077 0.003,-9.19078 -2.7312,-5.8047 c -2.59367,-5.51242 -2.92574,-5.97395 -6.59474,-9.16591 -5.27132,-4.58594 -14.89011,-9.70163 -23.8181,-12.66749 -3.72469,-1.23734 -9.27696,-3.49971 -12.33838,-5.02751 -4.99719,-2.49382 -5.85022,-3.11571 -8.34426,-6.08321 l -2.77803,-3.30541 v -3.75098 c 0,-3.5592 0.1051,-3.9241 2.05583,-7.13748 1.95503,-3.22047 2.22614,-3.45827 5.52921,-4.85008 2.94994,-1.243 4.09507,-1.46356 7.59869,-1.46356 3.93253,0 4.36391,0.1117 9.23163,2.39046 l 5.10632,2.39046 2.25052,4.65504 c 3.05072,6.31018 3.4828,6.52697 13.00922,6.52697 h 7.08942 l 2.37833,-1.74586 c 1.5832,-1.16218 2.30518,-2.01121 2.15952,-2.53956 -0.12034,-0.43653 -0.36619,-2.29777 -0.54632,-4.13607 -0.24815,-2.5324 -0.99023,-4.85815 -3.06217,-9.59721 l -2.73465,-6.25483 -5.48924,-5.12897 c -4.98196,-4.65499 -5.98776,-5.35887 -10.88381,-7.61665 l -5.39458,-2.48767 -0.24186,-6.9724 c -0.23233,-6.69744 -0.29686,-7.05348 -1.63639,-9.02824 l -1.39452,-2.05583 h -8.98254 -8.98254 l -1.59513,1.54606 -1.59514,1.54607 v 7.79686 7.79687 l -5.68377,2.58268 c -10.63676,4.83331 -18.50037,13.2075 -21.81869,23.23536 -1.45289,4.39062 -1.52067,4.94335 -1.5126,12.335 0.008,7.11527 0.12185,8.12333 1.41689,12.51871 l 1.40845,4.78031 5.23433,5.37792 c 4.8407,4.9735 5.69389,5.62342 11.34557,8.6425 3.93682,2.10302 9.29943,4.38251 15.07167,6.40654 9.58404,3.36063 15.1046,6.20425 18.64069,9.60176 2.71914,2.61258 2.89475,2.97752 3.48909,7.25066 l 0.50182,3.60795 -1.71154,3.11376 c -2.31018,4.20285 -4.37405,5.73991 -9.56165,7.12099 l -4.22178,1.12395 -5.45272,-1.57072 c -5.33467,-1.5367 -5.52278,-1.63933 -8.68853,-4.74008 -2.63221,-2.57816 -3.34002,-3.60372 -3.79441,-5.49784 -0.43224,-1.80177 -0.91681,-2.54985 -2.14226,-3.30722 -1.43277,-0.8855 -2.39514,-0.97876 -10.09984,-0.97876 h -8.51618 l -1.6392,2.43407 -1.6392,2.43407 1.68342,5.8661 c 1.8703,6.51732 4.30439,11.06619 8.74359,16.34017 1.9663,2.33606 3.98719,3.97401 7.96689,6.45725 2.93277,1.82997 6.60302,3.87831 8.15613,4.55187 l 2.82383,1.22466 v 4.94493 c 0,2.71971 0.13656,6.25147 0.30347,7.84835 l 0.30346,2.90343 2.40708,1.17857 c 2.23185,1.09278 2.8524,1.16732 8.52452,1.02399 3.36459,-0.085 7.01984,-0.26734 8.12277,-0.40517 z"
       id="path12" />
    <path
       style="fill:none;stroke-width:0.483725"
       d="m 187.92722,301.36686 c -11.63547,-1.68449 -15.84879,-2.87483 -26.45054,-7.47275 -11.00747,-4.77388 -19.36143,-10.28286 -29.66158,-19.56019 -6.58575,-5.93177 -7.76282,-7.25277 -12.74492,-14.3033 -7.76815,-10.9933 -12.82361,-21.17081 -16.06881,-32.34925 -2.06387,-7.10921 -2.59023,-9.83016 -3.637454,-18.80311 L 98.139513,198.38717 99.3478,188.27443 c 2.42672,-20.31038 6.96448,-32.82525 17.63738,-48.64279 5.2182,-7.73353 6.23493,-8.93012 13.62061,-16.03001 10.29184,-9.89363 18.8815,-15.73272 30.86651,-20.98249 9.24508,-4.049613 15.90911,-5.869498 27.5376,-7.520262 7.92764,-1.125397 8.36109,-1.137134 19.47563,-0.527375 9.7359,0.534124 12.44374,0.863355 18.86528,2.293717 9.98791,2.224748 18.64199,5.79332 28.53979,11.76857 11.13391,6.72149 17.97418,12.42749 25.68268,21.4239 11.22891,13.105 18.83324,27.78382 22.66462,43.75001 1.76104,7.33865 1.91364,8.57703 2.42679,19.69358 l 0.54758,11.86249 -1.77382,10.59096 c -1.64029,9.79367 -2.02109,11.24995 -5.05841,19.34473 -2.75557,7.34388 -4.06483,10.03814 -8.12901,16.72828 -4.478,7.37135 -5.49665,8.67084 -13.46748,17.18058 -7.95788,8.49591 -9.18278,9.59214 -15.87894,14.21103 -8.66948,5.98005 -19.76147,11.64127 -28.32651,14.45751 -5.05102,1.66081 -7.84541,2.21626 -17.39126,3.45691 -13.61248,1.76919 -17.23941,1.77329 -29.25962,0.0331 z m 22.80551,-19.63238 c 1.63793,-0.20468 2.23616,-0.58365 3.26515,-2.06849 1.22063,-1.76137 1.25981,-2.04379 1.25981,-9.0823 v -7.2644 l 5.4419,-2.60439 c 5.00459,-2.39511 5.95331,-3.08367 11.80559,-8.56839 l 6.36367,-5.96398 2.46611,-6.15072 2.46611,-6.15071 0.003,-9.19077 0.003,-9.19078 -2.7312,-5.8047 c -2.59367,-5.51242 -2.92574,-5.97395 -6.59474,-9.16591 -5.27132,-4.58594 -14.89011,-9.70163 -23.8181,-12.66749 -3.72469,-1.23734 -9.27696,-3.49971 -12.33838,-5.02751 -4.99719,-2.49382 -5.85022,-3.11571 -8.34426,-6.08321 l -2.77803,-3.30541 v -3.75098 c 0,-3.5592 0.1051,-3.9241 2.05583,-7.13748 1.95503,-3.22047 2.22614,-3.45827 5.52921,-4.85008 2.94994,-1.243 4.09507,-1.46356 7.59869,-1.46356 3.93253,0 4.36391,0.1117 9.23163,2.39046 l 5.10632,2.39046 2.25052,4.65504 c 3.05072,6.31018 3.4828,6.52697 13.00922,6.52697 h 7.08942 l 2.37833,-1.74586 c 1.5832,-1.16218 2.30518,-2.01121 2.15952,-2.53956 -0.12034,-0.43653 -0.36619,-2.29777 -0.54632,-4.13607 -0.24815,-2.5324 -0.99023,-4.85815 -3.06217,-9.59721 l -2.73465,-6.25483 -5.48924,-5.12897 c -4.98196,-4.65499 -5.98776,-5.35887 -10.88381,-7.61665 l -5.39458,-2.48767 -0.24186,-6.9724 c -0.23233,-6.69744 -0.29686,-7.05348 -1.63639,-9.02824 l -1.39452,-2.05583 h -8.98254 -8.98254 l -1.59513,1.54606 -1.59514,1.54607 v 7.79686 7.79687 l -5.68377,2.58268 c -10.63676,4.83331 -18.50037,13.2075 -21.81869,23.23536 -1.45289,4.39062 -1.52067,4.94335 -1.5126,12.335 0.008,7.11527 0.12185,8.12333 1.41689,12.51871 l 1.40845,4.78031 5.23433,5.37792 c 4.8407,4.9735 5.69389,5.62342 11.34557,8.6425 3.93682,2.10302 9.29943,4.38251 15.07167,6.40654 9.58404,3.36063 15.1046,6.20425 18.64069,9.60176 2.71914,2.61258 2.89475,2.97752 3.48909,7.25066 l 0.50182,3.60795 -1.71154,3.11376 c -2.31018,4.20285 -4.37405,5.73991 -9.56165,7.12099 l -4.22178,1.12395 -5.45272,-1.57072 c -5.33467,-1.5367 -5.52278,-1.63933 -8.68853,-4.74008 -2.63221,-2.57816 -3.34002,-3.60372 -3.79441,-5.49784 -0.43224,-1.80177 -0.91681,-2.54985 -2.14226,-3.30722 -1.43277,-0.8855 -2.39514,-0.97876 -10.09984,-0.97876 h -8.51618 l -1.6392,2.43407 -1.6392,2.43407 1.68342,5.8661 c 1.8703,6.51732 4.30439,11.06619 8.74359,16.34017 1.9663,2.33606 3.98719,3.97401 7.96689,6.45725 2.93277,1.82997 6.60302,3.87831 8.15613,4.55187 l 2.82383,1.22466 v 4.94493 c 0,2.71971 0.13656,6.25147 0.30347,7.84835 l 0.30346,2.90343 2.40708,1.17857 c 2.23185,1.09278 2.8524,1.16732 8.52452,1.02399 3.36459,-0.085 7.01984,-0.26734 8.12277,-0.40517 z"
       id="path13" />
    <path
       style="fill:#ffffff;stroke-width:1.36818"
       d="m 198.59405,322.81919 c -9.41971,-1.68991 -26.36562,-8.4723 -35.07768,-14.03939 -21.49093,-13.73293 -38.00244,-36.04634 -45.24171,-61.13899 -3.44043,-11.92518 -3.55823,-40.73214 -0.21594,-52.81043 5.53757,-20.01158 14.32559,-34.33836 30.58449,-49.86076 12.84667,-12.26475 30.82475,-21.96161 47.03277,-25.36814 12.52504,-2.63245 33.59757,-2.59807 46.30757,0.0756 33.11899,6.9668 63.23987,34.27106 75.04711,68.02943 7.11742,20.34959 6.44538,50.18494 -1.59239,70.69484 -11.32146,28.88889 -37.84567,53.28444 -67.79746,62.35651 -9.02707,2.7342 -38.4122,3.96922 -49.04676,2.06137 z m 30.98677,-19.35658 c 0.903,-0.903 1.64182,-5.13808 1.64182,-9.41128 0,-7.48045 0.16541,-7.83711 4.44659,-9.58775 6.62974,-2.71101 18.81825,-14.7961 21.72852,-21.54416 3.44196,-7.98085 3.43144,-22.58833 -0.0221,-30.64503 -1.41832,-3.3088 -4.58847,-7.70707 -7.04479,-9.77392 -5.10129,-4.29245 -17.21212,-10.60352 -25.26507,-13.16587 -13.83426,-4.40188 -21.08031,-10.11985 -21.16129,-16.69871 -0.14262,-11.58748 9.96714,-16.4924 23.13428,-11.22396 2.99684,1.1991 5.80524,3.30322 6.24089,4.67581 0.43564,1.3726 2.04276,4.08561 3.57136,6.02891 2.35223,2.99038 3.87348,3.53328 9.90054,3.53328 7.47422,0 13.20285,-2.7199 13.20285,-6.26858 0,-1.10488 -1.22884,-5.50511 -2.73073,-9.77828 -3.20986,-9.13264 -10.27014,-16.99558 -19.50222,-21.71939 l -6.49886,-3.32529 v -7.22831 c 0,-3.97558 -0.73882,-7.96713 -1.64182,-8.87013 -2.16245,-2.16246 -19.18117,-2.16246 -21.34363,0 -0.903,0.903 -1.64181,5.13695 -1.64181,9.40878 v 7.76697 l -6.61025,2.84365 c -7.35707,3.16493 -17.18944,12.96482 -20.17362,20.10698 -2.29938,5.50319 -2.61334,24.69781 -0.49584,30.31429 3.43364,9.10746 12.47716,15.42603 33.90681,23.69018 19.13873,7.38067 25.22625,15.81413 18.02417,24.97009 -5.5668,7.07705 -20.26976,5.92597 -26.55371,-2.07888 -7.21894,-9.19588 -7.24198,-9.20938 -15.71704,-9.20938 -6.7718,0 -8.35839,0.4762 -10.04376,3.01449 -1.68136,2.53227 -1.72527,3.93247 -0.27451,8.75298 3.70713,12.31787 9.02365,18.979 20.0707,25.14683 l 7.86705,4.39235 v 7.32641 c 0,5.53414 0.58572,7.66756 2.39431,8.72097 3.35608,1.95473 18.59375,1.83333 20.59113,-0.16405 z"
       id="path25"
       inkscape:export-filename="infocash-coin-white.png"
       inkscape:export-xdpi="96"
       inkscape:export-ydpi="96" />
    <path
       style="fill:#ffffff;stroke-width:1.36818"
       d="m 52.203239,279.45103 c -0.818295,-2.06937 -3.185341,-10.22716 -5.260104,-18.1284 -3.480081,-13.25307 -3.772621,-16.37961 -3.776487,-40.36135 -0.0037,-22.69409 0.40408,-27.64613 3.210604,-38.99317 C 59.790763,127.736 95.392016,83.638366 143.96054,61.096175 c 26.87505,-12.473561 42.93792,-15.94562 73.77119,-15.945958 23.38378,-2.56e-4 37.28734,1.958889 55.22044,7.781086 12.78119,4.149571 33.46073,14.333195 45.14998,22.234078 4.515,3.051733 8.84201,5.550566 9.61558,5.55296 0.77357,0.0024 5.89522,-3.654185 11.38146,-8.125734 10.18907,-8.304582 13.34242,-9.102222 14.5902,-3.690585 0.77273,3.351274 5.54052,43.234858 6.91593,57.852988 0.85796,9.11859 0.72801,9.83636 -1.93375,10.68117 -2.66583,0.8461 -55.14003,-14.74686 -62.80237,-18.66203 -4.84494,-2.47559 -3.69644,-5.43054 5.13068,-13.20049 4.515,-3.97427 8.2037,-7.959244 8.19712,-8.855501 -0.0139,-1.890421 -12.078,-9.807251 -23.9312,-15.704351 -4.515,-2.246262 -15.28943,-6.155175 -23.94317,-8.686473 -15.58498,-4.558749 -15.99339,-4.601856 -43.09771,-4.549118 -26.03537,0.05066 -27.99455,0.242205 -40.36135,3.946075 -16.72276,5.008485 -32.5214,12.322249 -45.27255,20.958301 C 76.388691,130.74711 51.799917,199.3687 70.723074,265.34174 l 2.133903,7.43957 -5.986454,5.17528 c -7.41085,6.40666 -12.519029,6.92713 -14.667284,1.49444 z"
       id="path26"
       inkscape:export-filename="infocash-brand\infocash-brand\infocash-arrow1-white.svg"
       inkscape:export-xdpi="96"
       inkscape:export-ydpi="96" />
    <path
       style="fill:#ffffff;stroke-width:1.36818"
       d="m 185.38857,394.14263 c -22.48495,-4.29837 -46.69031,-14.3722 -65.67271,-27.33177 -4.515,-3.08246 -9.06313,-5.60595 -10.10697,-5.60774 -1.04385,-0.002 -5.86462,3.38299 -10.712836,7.52174 -8.463733,7.22519 -12.939887,9.09033 -14.757559,6.14929 -0.467631,-0.75665 -2.564011,-16.30261 -4.658623,-34.54658 -3.828385,-33.34507 -3.747557,-36.59132 0.911079,-36.59132 2.006805,0 37.388729,10.82549 54.716949,16.74126 11.43065,3.90236 11.44308,6.45953 0.0806,16.58092 l -8.47054,7.54531 3.33986,2.84445 c 6.75227,5.7507 36.1942,19.30446 49.85802,22.95243 12.48222,3.33251 15.90106,3.65313 38.99317,3.65682 23.4118,0.004 26.33453,-0.27862 38.94505,-3.76233 46.64444,-12.88575 86.2786,-47.4223 103.07512,-89.81794 9.14034,-23.0709 10.53204,-31.02578 10.53197,-60.19998 -5e-5,-22.10581 -0.44312,-28.20411 -2.58451,-35.57272 -4.82516,-16.60369 -4.82779,-16.58839 3.87116,-22.57959 7.12768,-4.90902 7.84736,-5.12964 9.93225,-3.04475 2.67778,2.67778 7.83316,19.7249 10.06552,33.28323 2.60323,15.81097 1.00346,57.50748 -2.72249,70.95932 -16.91304,61.06112 -57.75696,105.1205 -115.70273,124.81144 -7.525,2.55714 -18.29943,5.54678 -23.94317,6.64365 -14.24444,2.76846 -48.95894,2.42919 -64.98861,-0.63514 z"
       id="path27"
       inkscape:export-filename="infocash-brand\infocash-brand\infocash-arrow2-white.svg"
       inkscape:export-xdpi="96"
       inkscape:export-ydpi="96" />
  </g>
</svg>
