<?xml version="1.0" encoding="UTF-8" standalone="no"?>
<!-- Created with Inkscape (http://www.inkscape.org/) -->

<svg
   version="1.1"
   id="svg1"
   width="381.03186"
   height="55.381927"
   viewBox="0 0 381.03186 55.381927"
   sodipodi:docname="Captura_de_Tela__8_-removebg-preview.png"
   inkscape:export-filename="infocash-logo-white.png"
   inkscape:export-xdpi="96"
   inkscape:export-ydpi="96"
   inkscape:dataloss="true"
   xmlns:inkscape="http://www.inkscape.org/namespaces/inkscape"
   xmlns:sodipodi="http://sodipodi.sourceforge.net/DTD/sodipodi-0.dtd"
   xmlns="http://www.w3.org/2000/svg"
   xmlns:svg="http://www.w3.org/2000/svg">
  <defs
     id="defs1" />
  <sodipodi:namedview
     id="namedview1"
     pagecolor="#505050"
     bordercolor="#eeeeee"
     borderopacity="1"
     inkscape:showpageshadow="0"
     inkscape:pageopacity="0"
     inkscape:pagecheckerboard="0"
     inkscape:deskcolor="#505050"
     showgrid="false"
     inkscape:zoom="0.51682243"
     inkscape:cx="184.783"
     inkscape:cy="349.24955"
     inkscape:window-width="1366"
     inkscape:window-height="705"
     inkscape:window-x="-8"
     inkscape:window-y="-8"
     inkscape:window-maximized="1"
     inkscape:current-layer="g1">
    <inkscape:page
       x="0"
       y="0"
       width="381.03186"
       height="55.381927"
       id="page2"
       margin="0"
       bleed="0" />
  </sodipodi:namedview>
  <g
     inkscape:groupmode="layer"
     inkscape:label="Image"
     id="g1"
     transform="translate(-160.76131,-452.86801)">
    <path
       style="fill:#000000;stroke-width:0.684091"
       d="m 163.32664,506.40982 -2.56534,-1.05249 v -26.24466 -26.24466 h 5.0048 5.0048 l 1.49406,3.6047 c 1.43815,3.4698 1.49406,4.49381 1.49406,27.36362 v 23.75893 l -3.93352,-0.0665 c -2.16343,-0.0366 -5.08792,-0.5401 -6.49886,-1.11896 z"
       id="path18"
       inkscape:export-filename="infocash-name-black-v2.png"
       inkscape:export-xdpi="96"
       inkscape:export-ydpi="96" />
    <path
       style="fill:#000000;stroke-width:0.684091"
       d="m 187.95391,506.08629 -3.24944,-1.39823 v -25.22593 -25.22594 h 5.75396 c 6.96101,0 5.66657,-1.25167 17.51776,16.93897 4.69617,7.20826 8.76938,13.11832 9.05157,13.13347 0.28219,0.0152 0.51307,-6.74495 0.51307,-15.02245 v -15.04999 h 5.81477 5.81477 v 1.94625 c 0,1.07745 0.61074,2.49896 1.36818,3.18443 1.31759,1.1924 1.36818,2.10698 1.36818,24.73329 v 23.4951 h -5.49922 c -5.4315,0 -5.53156,-0.0316 -8.12655,-2.56534 -1.44504,-1.41094 -5.75544,-7.54915 -9.57868,-13.64047 -10.58215,-16.85991 -9.58231,-16.96238 -9.60914,0.98479 l -0.0228,15.22102 -3.93352,-0.0554 c -2.33245,-0.0328 -5.25615,-0.6245 -7.18295,-1.4536 z"
       id="path19" />
    <path
       style="fill:#000000;stroke-width:0.684091"
       d="m 245.41752,506.40982 -2.56534,-1.05249 v -25.56057 -25.56057 h 14.3659 14.36591 v 1.62646 c 0,0.89456 0.46176,2.00969 1.02613,2.47808 0.61833,0.51317 1.02614,2.01005 1.02614,3.76648 0,3.58354 -0.40747,3.73624 -10.00483,3.74918 l -6.92641,0.009 -0.42756,2.13778 c -0.23516,1.17578 -0.42756,3.01206 -0.42756,4.08062 v 1.94283 l 7.01023,0.19495 7.01022,0.19495 0.61197,2.90739 c 0.35628,1.69263 1.0001,2.90738 1.54091,2.90738 0.64144,0 0.92894,0.92935 0.92894,3.00282 v 3.00281 l -8.11308,0.48747 -8.11308,0.48746 -0.43395,5.57392 c -0.23868,3.06566 -0.4358,7.65185 -0.43806,10.19154 l -0.004,4.61761 -3.93352,-0.0665 c -2.16344,-0.0366 -5.08792,-0.5401 -6.49886,-1.11896 z"
       id="path20" />
    <path
       style="fill:#000000;stroke-width:0.684091"
       d="m 298.5066,506.36583 c -1.93568,-1.01694 -5.72578,-3.93943 -8.42243,-6.49442 -6.69327,-6.34165 -8.92291,-11.4013 -8.92291,-20.24847 0,-5.56932 0.22644,-6.65331 2.37454,-11.36701 2.86421,-6.2851 7.00368,-10.46091 13.25229,-13.36865 3.72099,-1.73153 5.15798,-2.01927 10.08431,-2.01927 4.98272,0 6.35847,0.28247 10.36862,2.1289 3.75093,1.72707 5.62358,3.22638 9.92144,7.94343 6.32755,6.94471 8.04196,11.23285 8.04196,20.1149 0,4.95721 -0.2322,5.87768 -2.74194,10.86929 -3.20146,6.3674 -6.21562,9.40903 -12.16775,12.27868 -3.95248,1.90557 -4.87986,2.07349 -11.2875,2.04387 -6.22711,-0.0288 -7.36137,-0.232 -10.50063,-1.88125 z m 15.71474,-13.18353 c 2.58785,-1.62486 3.66114,-2.8851 4.96178,-5.82608 1.49249,-3.3748 1.61651,-4.35314 1.23144,-9.71423 -0.41776,-5.81611 -0.49636,-6.03239 -3.22297,-8.86887 -2.73385,-2.84403 -2.89308,-2.90739 -7.30619,-2.90739 -3.97449,0 -4.85666,0.25388 -7.412,2.1331 -4.58064,3.36864 -6.26215,7.42102 -6.26215,15.09155 v 6.32469 l 2.8788,2.93328 c 2.81372,2.86698 2.97995,2.93299 7.35397,2.92028 3.78717,-0.011 4.98285,-0.33175 7.77732,-2.08633 z"
       id="path21" />
    <path
       style="fill:#000000;stroke-width:0.684091"
       d="m 360.85782,506.24969 c -2.89493,-1.36002 -5.76753,-3.61708 -9.74747,-7.65879 -4.88905,-4.96494 -5.9172,-6.44281 -7.69602,-11.06232 -2.47781,-6.43477 -2.52679,-8.15546 -0.42595,-14.96412 2.27635,-7.37749 7.429,-13.25853 14.91341,-17.02162 4.90424,-2.4658 5.76201,-2.67483 10.97657,-2.67483 7.97483,0 15.28196,2.44884 17.49395,5.86275 l 1.57131,2.42513 -1.7035,3.72093 c -1.58337,3.45854 -1.82125,3.67617 -3.37322,3.08612 -0.91834,-0.34916 -4.59273,-0.84939 -8.16531,-1.11163 -6.25111,-0.45887 -6.62734,-0.4051 -9.99628,1.4285 -2.33378,1.2702 -4.18559,2.97264 -5.55534,5.10721 -1.86218,2.90195 -2.05465,3.73495 -2.05465,8.8922 0,5.05005 0.19689,5.94845 1.74986,7.98449 3.68471,4.83091 11.59207,6.44924 19.067,3.90228 l 3.27422,-1.11564 1.62462,1.97075 c 1.77481,2.15295 5.97354,9.20005 5.62632,9.44315 -0.11875,0.0831 -1.656,0.97555 -3.41612,1.98313 -3.01264,1.72459 -3.69431,1.829 -11.62954,1.78129 -7.76215,-0.0467 -8.75419,-0.20331 -12.53386,-1.97898 z"
       id="path22" />
    <path
       style="fill:#000000;stroke-width:0.684091"
       d="m 394.87322,506.05666 c -1.60902,-0.81667 -2.8004,-1.80506 -2.64752,-2.19642 0.15289,-0.39136 4.64614,-11.71688 9.98501,-25.16781 l 9.70703,-24.45624 5.25412,0.0162 5.25411,0.0162 1.97751,2.6737 c 1.76185,2.38212 21.25023,49.20218 20.70632,49.74609 -0.12081,0.12081 -2.0672,0.41277 -4.3253,0.64878 -3.67349,0.38396 -4.3894,0.24135 -6.80135,-1.3548 -1.94159,-1.28488 -3.06831,-2.7441 -4.02761,-5.21617 l -1.3319,-3.43223 h -9.64534 -9.64534 l -1.737,4.95966 -1.73699,4.95966 -4.03013,0.14414 c -2.9931,0.10706 -4.78291,-0.23793 -6.95562,-1.3407 z m 28.57889,-22.42731 c 0,-2.0451 -3.28982,-8.18635 -4.38537,-8.18635 -0.73755,0 -4.50781,7.7302 -4.50781,9.24242 0,0.18417 2.00097,0.33485 4.44659,0.33485 4.01476,0 4.44659,-0.13508 4.44659,-1.39092 z"
       id="path23" />
    <path
       style="fill:#000000;stroke-width:0.684091"
       d="m 459.02482,506.25873 c -2.06937,-1.07514 -4.99386,-3.03238 -6.49886,-4.34942 l -2.73636,-2.39461 1.36818,-2.58092 c 0.7525,-1.41951 1.92509,-3.29018 2.60575,-4.15706 l 1.23757,-1.57614 4.73115,2.38257 c 3.56347,1.79454 5.59569,2.38257 8.23409,2.38257 4.72967,0 7.47666,-1.89965 7.47666,-5.1704 0,-2.25597 -0.21708,-2.45071 -5.98579,-5.36974 -7.48552,-3.78775 -14.29277,-10.30091 -15.25857,-14.59935 -0.78373,-3.48815 0.96934,-9.25866 3.8643,-12.71996 3.26051,-3.89836 7.26326,-5.27652 14.05093,-4.83778 6.61936,0.42785 13.59049,3.07671 13.59049,5.16403 0,0.66463 0.53699,1.50892 1.1933,1.87622 1.1071,0.61956 1.05838,0.94292 -0.6745,4.47619 l -1.86781,3.80839 -3.85721,-1.70584 c -2.35975,-1.0436 -5.12844,-1.70584 -7.13172,-1.70584 -2.81669,0 -3.52214,0.29428 -5.04556,2.10476 -0.97407,1.15762 -1.77104,2.33532 -1.77104,2.61712 0,1.14217 3.40917,3.50773 9.2676,6.4306 5.03392,2.5115 6.91737,3.9173 10.09033,7.53135 l 3.90115,4.44347 v 5.06367 c 0,4.33908 -0.2475,5.40082 -1.72965,7.41986 -2.0494,2.79177 -3.8653,4.31808 -7.30729,6.14197 -2.1047,1.11526 -3.8569,1.33929 -10.26136,1.31201 -7.12833,-0.0304 -8.01312,-0.18349 -11.48578,-1.98772 z"
       id="path24" />
    <path
       style="fill:#000000;stroke-width:0.684091"
       d="m 502.29356,506.04987 -2.90739,-1.46052 v -25.17658 -25.17658 h 5.14778 5.14779 l 0.42869,2.14345 c 0.25438,1.27193 0.9428,2.27789 1.69312,2.4741 1.1307,0.29569 1.26444,1.10664 1.26444,7.66759 v 7.33692 l 2.6447,0.79238 c 1.45459,0.4358 4.68692,0.79237 7.18296,0.79237 h 4.53824 v -10.60341 -10.6034 h 5.5042 5.50419 l 1.67207,3.59148 c 1.64329,3.52963 1.67219,3.91071 1.67876,22.13259 0.004,10.19762 -0.189,20.41332 -0.42817,22.70157 l -0.43485,4.16044 -2.71921,0.45941 c -2.04825,0.34605 -3.7133,0.0645 -6.74809,-1.14087 l -4.0289,-1.60028 v -9.07604 -9.07604 h -7.18295 -7.18295 v 10.60341 10.6034 l -3.93353,-0.0424 c -2.58206,-0.0279 -4.93242,-0.54423 -6.8409,-1.50295 z"
       id="path25" />
  </g>
</svg>
