<?xml version="1.0" encoding="UTF-8" standalone="no"?>
<!-- Created with Inkscape (http://www.inkscape.org/) -->

<svg
   version="1.1"
   id="svg1"
   width="350.81714"
   height="351.67661"
   viewBox="0 0 350.81714 351.67661"
   sodipodi:docname="Captura_de_Tela__8_-removebg-preview.png"
   inkscape:export-filename="infocash-logo-white.png"
   inkscape:export-xdpi="96"
   inkscape:export-ydpi="96"
   inkscape:dataloss="true"
   xmlns:inkscape="http://www.inkscape.org/namespaces/inkscape"
   xmlns:sodipodi="http://sodipodi.sourceforge.net/DTD/sodipodi-0.dtd"
   xmlns="http://www.w3.org/2000/svg"
   xmlns:svg="http://www.w3.org/2000/svg">
  <defs
     id="defs1" />
  <sodipodi:namedview
     id="namedview1"
     pagecolor="#505050"
     bordercolor="#eeeeee"
     borderopacity="1"
     inkscape:showpageshadow="0"
     inkscape:pageopacity="0"
     inkscape:pagecheckerboard="0"
     inkscape:deskcolor="#505050"
     showgrid="false"
     inkscape:zoom="0.51682243"
     inkscape:cx="184.783"
     inkscape:cy="349.24955"
     inkscape:window-width="1366"
     inkscape:window-height="705"
     inkscape:window-x="-8"
     inkscape:window-y="-8"
     inkscape:window-maximized="1"
     inkscape:current-layer="g1">
    <inkscape:page
       x="0"
       y="0"
       width="350.81714"
       height="351.67661"
       id="page2"
       margin="0"
       bleed="0" />
  </sodipodi:namedview>
  <g
     inkscape:groupmode="layer"
     inkscape:label="Image"
     id="g1"
     transform="translate(-174.51202,-57.463847)">
    <path
       style="fill:#000000;stroke-width:1.36818"
       d="m 329.93945,335.13282 c -9.39735,-1.6859 -26.34014,-8.46085 -35.09638,-14.03406 -21.17132,-13.47522 -38.05705,-36.30578 -45.223,-61.14431 -3.44044,-11.92519 -3.55823,-40.73215 -0.21595,-52.81044 8.59484,-31.05987 30.6695,-56.49691 60.49338,-69.70761 17.15701,-7.59983 42.88236,-9.7542 63.92904,-5.35375 27.95296,5.84443 55.91446,28.37772 69.23381,55.7934 7.12985,14.6756 8.32268,19.232 9.73594,37.18977 1.36802,17.38281 -0.30307,29.94587 -5.99136,45.04251 -10.97268,29.12129 -37.54886,53.79472 -67.81871,62.96312 -9.02708,2.7342 -38.41221,3.96922 -49.04677,2.06137 z m 30.98678,-19.35658 c 0.903,-0.903 1.64181,-5.13808 1.64181,-9.41128 0,-7.48045 0.16541,-7.83711 4.44659,-9.58775 6.62974,-2.71101 18.81825,-14.7961 21.72853,-21.54416 1.73823,-4.03043 2.55669,-9.19425 2.55669,-16.13063 0,-11.71094 -2.68969,-18.45386 -9.72115,-24.37045 -5.01562,-4.22036 -17.17011,-10.53908 -25.16747,-13.08373 -8.16533,-2.5981 -15.92119,-6.78342 -18.67243,-10.07625 -4.54239,-5.43659 -2.42358,-15.65473 3.83768,-18.50756 7.83335,-3.56911 21.07858,0.29395 23.83646,6.95207 2.75577,6.653 4.90864,7.94706 13.22123,7.94706 7.82103,0 12.66568,-2.44918 12.66568,-6.40305 0,-1.03092 -1.23028,-5.37479 -2.73397,-9.65304 -3.22776,-9.18355 -11.63919,-18.45748 -20.18307,-22.25261 -5.79568,-2.5744 -5.81477,-2.60692 -5.81477,-9.91117 0,-4.03056 -0.73881,-8.06711 -1.64181,-8.97011 -2.16246,-2.16246 -19.18118,-2.16246 -21.34363,0 -0.903,0.903 -1.64182,5.13695 -1.64182,9.40878 v 7.76697 l -6.61025,2.84366 c -7.35706,3.16492 -17.18943,12.96481 -20.17362,20.10698 -2.29938,5.50318 -2.61334,24.6978 -0.49584,30.31429 3.41465,9.05708 13.83841,16.24666 35.30367,24.35001 18.19537,6.86893 23.93146,15.74021 16.07971,24.86842 -2.83908,3.30061 -4.24773,3.78993 -10.91057,3.78993 -8.51605,0 -13.93146,-2.94215 -17.02498,-9.24953 -2.51466,-5.12716 -6.05054,-6.58176 -14.85712,-6.11199 -10.46344,0.55814 -12.1964,3.10931 -8.82843,12.99674 3.80215,11.16208 9.15719,17.74174 18.8523,23.16356 l 8.66513,4.84581 v 7.33926 c 0,5.54639 0.5849,7.67992 2.39432,8.73382 3.35608,1.95473 18.59374,1.83333 20.59113,-0.16405 z"
       id="path15"
       inkscape:export-filename="infocash-brand\infocash-brand\infocash-coin-black-v2.svg"
       inkscape:export-xdpi="96"
       inkscape:export-ydpi="96" />
    <path
       style="fill:#000000;stroke-width:1.36818"
       d="m 183.54864,291.76466 c -0.81829,-2.06937 -3.18534,-10.22715 -5.2601,-18.1284 -3.48008,-13.25307 -3.77262,-16.37961 -3.77649,-40.36135 -0.004,-22.69409 0.40408,-27.64613 3.21061,-38.99317 13.40218,-54.18629 48.79219,-98.02496 97.48886,-120.762359 26.98449,-12.599571 42.88253,-16.055193 73.86561,-16.055532 23.38378,-2.56e-4 37.28735,1.958888 55.22044,7.781086 12.7812,4.14957 33.46074,14.333194 45.14999,22.234077 4.51499,3.051734 8.842,5.550567 9.61557,5.552961 0.77357,0.0024 5.89522,-3.654185 11.38147,-8.125734 10.18906,-8.304583 13.34242,-9.102223 14.5902,-3.690586 0.77272,3.351274 5.54052,43.234857 6.91592,57.852987 0.8561,9.09883 0.72366,9.83775 -1.91337,10.67471 -1.77262,0.5626 -11.94855,-2.00544 -27.1842,-6.86031 -33.46419,-10.66343 -38.71695,-12.72579 -38.71695,-15.20125 0,-1.15436 4.08477,-5.8934 9.07728,-10.5312 l 9.0773,-8.43237 -7.51471,-4.98949 c -12.58682,-8.357172 -25.60766,-14.259285 -42.10804,-19.0868 -15.58599,-4.559999 -15.99163,-4.602824 -43.09771,-4.550082 -26.03537,0.05066 -27.99455,0.242206 -40.36135,3.946076 -58.35079,17.476126 -98.72679,61.159616 -110.6745,119.740656 -4.68744,22.98305 -3.49109,50.24614 3.19247,72.75213 1.17264,3.94871 2.13207,7.6552 2.13207,8.23665 0,2.05683 -12.75126,10.7598 -15.76484,10.7598 -2.06289,0 -3.54178,-1.22413 -4.54553,-3.7625 z"
       id="path16"
       inkscape:export-filename="infocash-brand\infocash-brand\infocash-arrow1-black.svg"
       inkscape:export-xdpi="96"
       inkscape:export-ydpi="96" />
    <path
       style="fill:#000000;stroke-width:1.36818"
       d="m 313.99761,405.71468 c -22.60445,-4.79527 -44.64889,-14.10937 -62.93634,-26.59153 -4.515,-3.08172 -9.06314,-5.60461 -10.10698,-5.6064 -1.04384,-0.002 -5.86461,3.38299 -10.71283,7.52174 -8.46374,7.22519 -12.93989,9.09033 -14.75756,6.14929 -0.46763,-0.75664 -2.56401,-16.3026 -4.65862,-34.54658 -3.80679,-33.15695 -3.73291,-36.59132 0.78712,-36.59132 1.07009,0 14.69361,4.06162 30.27451,9.02584 15.58089,4.96421 29.40634,9.3458 30.72321,9.73684 4.9018,1.4556 2.67726,6.76047 -6.15681,14.68214 l -8.55114,7.66796 3.42046,2.69995 c 6.60318,5.21228 32.27068,17.52202 43.7818,20.99707 17.85308,5.38962 29.83063,6.75571 51.99089,5.92976 15.49402,-0.57749 22.6531,-1.5186 32.69028,-4.29734 25.05778,-6.93714 47.8019,-19.84593 66.31107,-37.63594 22.21984,-21.35649 34.23726,-41.3943 43.1235,-71.90399 3.33981,-11.46684 3.58646,-14.1954 3.58646,-39.67726 0,-24.13127 -0.36364,-28.69269 -3.07841,-38.61487 -1.69313,-6.18819 -3.07841,-12.1161 -3.07841,-13.17315 0,-1.05705 3.40377,-4.26618 7.56394,-7.1314 7.01586,-4.83201 7.72681,-5.04662 9.8117,-2.96173 2.83865,2.83865 8.00051,20.33409 10.07462,34.14654 2.48741,16.56484 0.98826,56.64191 -2.60316,69.59105 -19.30322,69.59922 -69.87522,117.3994 -139.52174,131.87465 -15.94612,3.31422 -49.24974,2.68158 -67.97756,-1.29132 z"
       id="path17"
       inkscape:export-filename="infocash-brand\infocash-brand\infocash-arrow2-black.svg"
       inkscape:export-xdpi="96"
       inkscape:export-ydpi="96" />
  </g>
</svg>
