<?xml version="1.0" encoding="UTF-8" standalone="no"?>
<!-- Created with Inkscape (http://www.inkscape.org/) -->

<svg
   version="1.1"
   id="svg1"
   width="381.16302"
   height="450.78613"
   viewBox="0 0 381.16302 450.78613"
   sodipodi:docname="Captura_de_Tela__8_-removebg-preview.png"
   inkscape:export-filename="infocash-logo-white.png"
   inkscape:export-xdpi="96"
   inkscape:export-ydpi="96"
   inkscape:dataloss="true"
   xmlns:inkscape="http://www.inkscape.org/namespaces/inkscape"
   xmlns:sodipodi="http://sodipodi.sourceforge.net/DTD/sodipodi-0.dtd"
   xmlns="http://www.w3.org/2000/svg"
   xmlns:svg="http://www.w3.org/2000/svg">
  <defs
     id="defs1" />
  <sodipodi:namedview
     id="namedview1"
     pagecolor="#505050"
     bordercolor="#eeeeee"
     borderopacity="1"
     inkscape:showpageshadow="0"
     inkscape:pageopacity="0"
     inkscape:pagecheckerboard="0"
     inkscape:deskcolor="#505050"
     showgrid="false"
     inkscape:zoom="0.51682243"
     inkscape:cx="184.783"
     inkscape:cy="349.24955"
     inkscape:window-width="1366"
     inkscape:window-height="705"
     inkscape:window-x="-8"
     inkscape:window-y="-8"
     inkscape:window-maximized="1"
     inkscape:current-layer="g1">
    <inkscape:page
       x="0"
       y="0"
       width="381.16302"
       height="450.78613"
       id="page2"
       margin="0"
       bleed="0" />
  </sodipodi:namedview>
  <g
     inkscape:groupmode="layer"
     inkscape:label="Image"
     id="g1"
     transform="translate(-29.415897,-45.150215)">
    <path
       style="fill:none;stroke-width:1.9349"
       d="m 179.94575,299.08253 c -36.48512,-8.35726 -65.71685,-36.30216 -76.87161,-73.48762 -3.721652,-12.40649 -4.060229,-37.54455 -0.69302,-51.45386 7.86659,-32.49536 35.02834,-62.4797 66.6735,-73.60208 48.36988,-17.000644 102.36774,5.08631 125.81602,51.46302 8.25527,16.32752 10.73436,26.571 10.79634,44.61005 0.10667,31.03714 -9.52751,54.46155 -30.87617,75.07194 -26.07831,25.17649 -60.78088,35.20125 -94.84506,27.39855 z m 34.44123,-18.90893 c 1.27703,-1.27704 2.32188,-5.61888 2.32188,-9.64854 0,-6.42424 0.77454,-7.65798 6.28843,-10.01667 7.5852,-3.24474 15.93348,-11.82166 18.74218,-19.25551 2.99829,-7.93564 2.52669,-27.69964 -0.81516,-34.16207 -3.83819,-7.42224 -10.93087,-12.20745 -30.03855,-20.26604 -8.77808,-3.70213 -17.5892,-8.20542 -19.58027,-10.00732 -4.12248,-3.73079 -4.60681,-9.92641 -1.13255,-14.48797 6.3905,-8.39048 24.46761,-5.59263 28.61889,4.42943 2.22765,5.37802 2.80463,5.59912 13.1839,5.05197 9.71578,-0.51217 10.92167,-1.04809 11.49666,-5.10942 1.41936,-10.02525 -12.08488,-29.58294 -22.17513,-32.11543 -3.81584,-0.95772 -4.5884,-2.38339 -4.5884,-8.46738 0,-9.5468 -2.73243,-11.95952 -13.5443,-11.95952 -10.76157,0 -13.54431,2.41648 -13.54431,11.76164 0,6.01213 -0.86229,7.47505 -5.55067,9.41705 -12.1917,5.04996 -23.48462,22.0673 -23.46204,35.35501 0.032,18.84675 7.64664,27.94807 31.25729,37.36007 16.97026,6.76492 26.77893,13.78401 26.77893,19.16301 0,1.76724 -2.24073,5.45389 -4.9794,8.19256 -6.97304,6.97304 -16.92903,5.35313 -25.21661,-4.10293 -5.21979,-5.95574 -7.15976,-6.85708 -14.75856,-6.85708 -11.82607,0 -13.87256,2.82584 -10.08872,13.9308 3.32851,9.76864 11.78181,19.40954 20.3403,23.1979 4.34684,1.92409 5.67948,3.79502 5.67948,7.97355 0,9.97829 3.03079,12.94477 13.2254,12.94477 5.0707,0 10.2643,-1.04485 11.54133,-2.32188 z"
       id="path9"
       inkscape:export-filename="infocash-brand\infocash-coin-white.svg"
       inkscape:export-xdpi="96"
       inkscape:export-ydpi="96" />
    <path
       style="fill:none;stroke-width:1.9349"
       d="m 179.94575,299.08253 c -36.48512,-8.35726 -65.71685,-36.30216 -76.87161,-73.48762 -3.721652,-12.40649 -4.060229,-37.54455 -0.69302,-51.45386 7.86659,-32.49536 35.02834,-62.4797 66.6735,-73.60208 48.36988,-17.000644 102.36774,5.08631 125.81602,51.46302 8.25527,16.32752 10.73436,26.571 10.79634,44.61005 0.10667,31.03714 -9.52751,54.46155 -30.87617,75.07194 -26.07831,25.17649 -60.78088,35.20125 -94.84506,27.39855 z m 34.44123,-18.90893 c 1.27703,-1.27704 2.32188,-5.61888 2.32188,-9.64854 0,-6.42424 0.77454,-7.65798 6.28843,-10.01667 7.5852,-3.24474 15.93348,-11.82166 18.74218,-19.25551 2.99829,-7.93564 2.52669,-27.69964 -0.81516,-34.16207 -3.83819,-7.42224 -10.93087,-12.20745 -30.03855,-20.26604 -8.77808,-3.70213 -17.5892,-8.20542 -19.58027,-10.00732 -4.12248,-3.73079 -4.60681,-9.92641 -1.13255,-14.48797 6.3905,-8.39048 24.46761,-5.59263 28.61889,4.42943 2.22765,5.37802 2.80463,5.59912 13.1839,5.05197 9.71578,-0.51217 10.92167,-1.04809 11.49666,-5.10942 1.41936,-10.02525 -12.08488,-29.58294 -22.17513,-32.11543 -3.81584,-0.95772 -4.5884,-2.38339 -4.5884,-8.46738 0,-9.5468 -2.73243,-11.95952 -13.5443,-11.95952 -10.76157,0 -13.54431,2.41648 -13.54431,11.76164 0,6.01213 -0.86229,7.47505 -5.55067,9.41705 -12.1917,5.04996 -23.48462,22.0673 -23.46204,35.35501 0.032,18.84675 7.64664,27.94807 31.25729,37.36007 16.97026,6.76492 26.77893,13.78401 26.77893,19.16301 0,1.76724 -2.24073,5.45389 -4.9794,8.19256 -6.97304,6.97304 -16.92903,5.35313 -25.21661,-4.10293 -5.21979,-5.95574 -7.15976,-6.85708 -14.75856,-6.85708 -11.82607,0 -13.87256,2.82584 -10.08872,13.9308 3.32851,9.76864 11.78181,19.40954 20.3403,23.1979 4.34684,1.92409 5.67948,3.79502 5.67948,7.97355 0,9.97829 3.03079,12.94477 13.2254,12.94477 5.0707,0 10.2643,-1.04485 11.54133,-2.32188 z"
       id="path10" />
    <path
       style="fill:none;stroke-width:1.9349"
       d="m 179.94575,299.08253 c -36.48512,-8.35726 -65.71685,-36.30216 -76.87161,-73.48762 -3.721652,-12.40649 -4.060229,-37.54455 -0.69302,-51.45386 7.86659,-32.49536 35.02834,-62.4797 66.6735,-73.60208 48.36988,-17.000644 102.36774,5.08631 125.81602,51.46302 8.25527,16.32752 10.73436,26.571 10.79634,44.61005 0.10667,31.03714 -9.52751,54.46155 -30.87617,75.07194 -26.07831,25.17649 -60.78088,35.20125 -94.84506,27.39855 z m 34.44123,-18.90893 c 1.27703,-1.27704 2.32188,-5.61888 2.32188,-9.64854 0,-6.42424 0.77454,-7.65798 6.28843,-10.01667 7.5852,-3.24474 15.93348,-11.82166 18.74218,-19.25551 2.99829,-7.93564 2.52669,-27.69964 -0.81516,-34.16207 -3.83819,-7.42224 -10.93087,-12.20745 -30.03855,-20.26604 -8.77808,-3.70213 -17.5892,-8.20542 -19.58027,-10.00732 -4.12248,-3.73079 -4.60681,-9.92641 -1.13255,-14.48797 6.3905,-8.39048 24.46761,-5.59263 28.61889,4.42943 2.22765,5.37802 2.80463,5.59912 13.1839,5.05197 9.71578,-0.51217 10.92167,-1.04809 11.49666,-5.10942 1.41936,-10.02525 -12.08488,-29.58294 -22.17513,-32.11543 -3.81584,-0.95772 -4.5884,-2.38339 -4.5884,-8.46738 0,-9.5468 -2.73243,-11.95952 -13.5443,-11.95952 -10.76157,0 -13.54431,2.41648 -13.54431,11.76164 0,6.01213 -0.86229,7.47505 -5.55067,9.41705 -12.1917,5.04996 -23.48462,22.0673 -23.46204,35.35501 0.032,18.84675 7.64664,27.94807 31.25729,37.36007 16.97026,6.76492 26.77893,13.78401 26.77893,19.16301 0,1.76724 -2.24073,5.45389 -4.9794,8.19256 -6.97304,6.97304 -16.92903,5.35313 -25.21661,-4.10293 -5.21979,-5.95574 -7.15976,-6.85708 -14.75856,-6.85708 -11.82607,0 -13.87256,2.82584 -10.08872,13.9308 3.32851,9.76864 11.78181,19.40954 20.3403,23.1979 4.34684,1.92409 5.67948,3.79502 5.67948,7.97355 0,9.97829 3.03079,12.94477 13.2254,12.94477 5.0707,0 10.2643,-1.04485 11.54133,-2.32188 z"
       id="path11" />
    <path
       style="fill:none;stroke-width:0.483725"
       d="m 187.92722,301.36686 c -11.63547,-1.68449 -15.84879,-2.87483 -26.45054,-7.47275 -11.00747,-4.77388 -19.36143,-10.28286 -29.66158,-19.56019 -6.58575,-5.93177 -7.76282,-7.25277 -12.74492,-14.3033 -7.76815,-10.9933 -12.82361,-21.17081 -16.06881,-32.34925 -2.06387,-7.10921 -2.59023,-9.83016 -3.637454,-18.80311 L 98.139513,198.38717 99.3478,188.27443 c 2.42672,-20.31038 6.96448,-32.82525 17.63738,-48.64279 5.2182,-7.73353 6.23493,-8.93012 13.62061,-16.03001 10.29184,-9.89363 18.8815,-15.73272 30.86651,-20.98249 9.24508,-4.049613 15.90911,-5.869498 27.5376,-7.520262 7.92764,-1.125397 8.36109,-1.137134 19.47563,-0.527375 9.7359,0.534124 12.44374,0.863355 18.86528,2.293717 9.98791,2.224748 18.64199,5.79332 28.53979,11.76857 11.13391,6.72149 17.97418,12.42749 25.68268,21.4239 11.22891,13.105 18.83324,27.78382 22.66462,43.75001 1.76104,7.33865 1.91364,8.57703 2.42679,19.69358 l 0.54758,11.86249 -1.77382,10.59096 c -1.64029,9.79367 -2.02109,11.24995 -5.05841,19.34473 -2.75557,7.34388 -4.06483,10.03814 -8.12901,16.72828 -4.478,7.37135 -5.49665,8.67084 -13.46748,17.18058 -7.95788,8.49591 -9.18278,9.59214 -15.87894,14.21103 -8.66948,5.98005 -19.76147,11.64127 -28.32651,14.45751 -5.05102,1.66081 -7.84541,2.21626 -17.39126,3.45691 -13.61248,1.76919 -17.23941,1.77329 -29.25962,0.0331 z m 22.80551,-19.63238 c 1.63793,-0.20468 2.23616,-0.58365 3.26515,-2.06849 1.22063,-1.76137 1.25981,-2.04379 1.25981,-9.0823 v -7.2644 l 5.4419,-2.60439 c 5.00459,-2.39511 5.95331,-3.08367 11.80559,-8.56839 l 6.36367,-5.96398 2.46611,-6.15072 2.46611,-6.15071 0.003,-9.19077 0.003,-9.19078 -2.7312,-5.8047 c -2.59367,-5.51242 -2.92574,-5.97395 -6.59474,-9.16591 -5.27132,-4.58594 -14.89011,-9.70163 -23.8181,-12.66749 -3.72469,-1.23734 -9.27696,-3.49971 -12.33838,-5.02751 -4.99719,-2.49382 -5.85022,-3.11571 -8.34426,-6.08321 l -2.77803,-3.30541 v -3.75098 c 0,-3.5592 0.1051,-3.9241 2.05583,-7.13748 1.95503,-3.22047 2.22614,-3.45827 5.52921,-4.85008 2.94994,-1.243 4.09507,-1.46356 7.59869,-1.46356 3.93253,0 4.36391,0.1117 9.23163,2.39046 l 5.10632,2.39046 2.25052,4.65504 c 3.05072,6.31018 3.4828,6.52697 13.00922,6.52697 h 7.08942 l 2.37833,-1.74586 c 1.5832,-1.16218 2.30518,-2.01121 2.15952,-2.53956 -0.12034,-0.43653 -0.36619,-2.29777 -0.54632,-4.13607 -0.24815,-2.5324 -0.99023,-4.85815 -3.06217,-9.59721 l -2.73465,-6.25483 -5.48924,-5.12897 c -4.98196,-4.65499 -5.98776,-5.35887 -10.88381,-7.61665 l -5.39458,-2.48767 -0.24186,-6.9724 c -0.23233,-6.69744 -0.29686,-7.05348 -1.63639,-9.02824 l -1.39452,-2.05583 h -8.98254 -8.98254 l -1.59513,1.54606 -1.59514,1.54607 v 7.79686 7.79687 l -5.68377,2.58268 c -10.63676,4.83331 -18.50037,13.2075 -21.81869,23.23536 -1.45289,4.39062 -1.52067,4.94335 -1.5126,12.335 0.008,7.11527 0.12185,8.12333 1.41689,12.51871 l 1.40845,4.78031 5.23433,5.37792 c 4.8407,4.9735 5.69389,5.62342 11.34557,8.6425 3.93682,2.10302 9.29943,4.38251 15.07167,6.40654 9.58404,3.36063 15.1046,6.20425 18.64069,9.60176 2.71914,2.61258 2.89475,2.97752 3.48909,7.25066 l 0.50182,3.60795 -1.71154,3.11376 c -2.31018,4.20285 -4.37405,5.73991 -9.56165,7.12099 l -4.22178,1.12395 -5.45272,-1.57072 c -5.33467,-1.5367 -5.52278,-1.63933 -8.68853,-4.74008 -2.63221,-2.57816 -3.34002,-3.60372 -3.79441,-5.49784 -0.43224,-1.80177 -0.91681,-2.54985 -2.14226,-3.30722 -1.43277,-0.8855 -2.39514,-0.97876 -10.09984,-0.97876 h -8.51618 l -1.6392,2.43407 -1.6392,2.43407 1.68342,5.8661 c 1.8703,6.51732 4.30439,11.06619 8.74359,16.34017 1.9663,2.33606 3.98719,3.97401 7.96689,6.45725 2.93277,1.82997 6.60302,3.87831 8.15613,4.55187 l 2.82383,1.22466 v 4.94493 c 0,2.71971 0.13656,6.25147 0.30347,7.84835 l 0.30346,2.90343 2.40708,1.17857 c 2.23185,1.09278 2.8524,1.16732 8.52452,1.02399 3.36459,-0.085 7.01984,-0.26734 8.12277,-0.40517 z"
       id="path12" />
    <path
       style="fill:none;stroke-width:0.483725"
       d="m 187.92722,301.36686 c -11.63547,-1.68449 -15.84879,-2.87483 -26.45054,-7.47275 -11.00747,-4.77388 -19.36143,-10.28286 -29.66158,-19.56019 -6.58575,-5.93177 -7.76282,-7.25277 -12.74492,-14.3033 -7.76815,-10.9933 -12.82361,-21.17081 -16.06881,-32.34925 -2.06387,-7.10921 -2.59023,-9.83016 -3.637454,-18.80311 L 98.139513,198.38717 99.3478,188.27443 c 2.42672,-20.31038 6.96448,-32.82525 17.63738,-48.64279 5.2182,-7.73353 6.23493,-8.93012 13.62061,-16.03001 10.29184,-9.89363 18.8815,-15.73272 30.86651,-20.98249 9.24508,-4.049613 15.90911,-5.869498 27.5376,-7.520262 7.92764,-1.125397 8.36109,-1.137134 19.47563,-0.527375 9.7359,0.534124 12.44374,0.863355 18.86528,2.293717 9.98791,2.224748 18.64199,5.79332 28.53979,11.76857 11.13391,6.72149 17.97418,12.42749 25.68268,21.4239 11.22891,13.105 18.83324,27.78382 22.66462,43.75001 1.76104,7.33865 1.91364,8.57703 2.42679,19.69358 l 0.54758,11.86249 -1.77382,10.59096 c -1.64029,9.79367 -2.02109,11.24995 -5.05841,19.34473 -2.75557,7.34388 -4.06483,10.03814 -8.12901,16.72828 -4.478,7.37135 -5.49665,8.67084 -13.46748,17.18058 -7.95788,8.49591 -9.18278,9.59214 -15.87894,14.21103 -8.66948,5.98005 -19.76147,11.64127 -28.32651,14.45751 -5.05102,1.66081 -7.84541,2.21626 -17.39126,3.45691 -13.61248,1.76919 -17.23941,1.77329 -29.25962,0.0331 z m 22.80551,-19.63238 c 1.63793,-0.20468 2.23616,-0.58365 3.26515,-2.06849 1.22063,-1.76137 1.25981,-2.04379 1.25981,-9.0823 v -7.2644 l 5.4419,-2.60439 c 5.00459,-2.39511 5.95331,-3.08367 11.80559,-8.56839 l 6.36367,-5.96398 2.46611,-6.15072 2.46611,-6.15071 0.003,-9.19077 0.003,-9.19078 -2.7312,-5.8047 c -2.59367,-5.51242 -2.92574,-5.97395 -6.59474,-9.16591 -5.27132,-4.58594 -14.89011,-9.70163 -23.8181,-12.66749 -3.72469,-1.23734 -9.27696,-3.49971 -12.33838,-5.02751 -4.99719,-2.49382 -5.85022,-3.11571 -8.34426,-6.08321 l -2.77803,-3.30541 v -3.75098 c 0,-3.5592 0.1051,-3.9241 2.05583,-7.13748 1.95503,-3.22047 2.22614,-3.45827 5.52921,-4.85008 2.94994,-1.243 4.09507,-1.46356 7.59869,-1.46356 3.93253,0 4.36391,0.1117 9.23163,2.39046 l 5.10632,2.39046 2.25052,4.65504 c 3.05072,6.31018 3.4828,6.52697 13.00922,6.52697 h 7.08942 l 2.37833,-1.74586 c 1.5832,-1.16218 2.30518,-2.01121 2.15952,-2.53956 -0.12034,-0.43653 -0.36619,-2.29777 -0.54632,-4.13607 -0.24815,-2.5324 -0.99023,-4.85815 -3.06217,-9.59721 l -2.73465,-6.25483 -5.48924,-5.12897 c -4.98196,-4.65499 -5.98776,-5.35887 -10.88381,-7.61665 l -5.39458,-2.48767 -0.24186,-6.9724 c -0.23233,-6.69744 -0.29686,-7.05348 -1.63639,-9.02824 l -1.39452,-2.05583 h -8.98254 -8.98254 l -1.59513,1.54606 -1.59514,1.54607 v 7.79686 7.79687 l -5.68377,2.58268 c -10.63676,4.83331 -18.50037,13.2075 -21.81869,23.23536 -1.45289,4.39062 -1.52067,4.94335 -1.5126,12.335 0.008,7.11527 0.12185,8.12333 1.41689,12.51871 l 1.40845,4.78031 5.23433,5.37792 c 4.8407,4.9735 5.69389,5.62342 11.34557,8.6425 3.93682,2.10302 9.29943,4.38251 15.07167,6.40654 9.58404,3.36063 15.1046,6.20425 18.64069,9.60176 2.71914,2.61258 2.89475,2.97752 3.48909,7.25066 l 0.50182,3.60795 -1.71154,3.11376 c -2.31018,4.20285 -4.37405,5.73991 -9.56165,7.12099 l -4.22178,1.12395 -5.45272,-1.57072 c -5.33467,-1.5367 -5.52278,-1.63933 -8.68853,-4.74008 -2.63221,-2.57816 -3.34002,-3.60372 -3.79441,-5.49784 -0.43224,-1.80177 -0.91681,-2.54985 -2.14226,-3.30722 -1.43277,-0.8855 -2.39514,-0.97876 -10.09984,-0.97876 h -8.51618 l -1.6392,2.43407 -1.6392,2.43407 1.68342,5.8661 c 1.8703,6.51732 4.30439,11.06619 8.74359,16.34017 1.9663,2.33606 3.98719,3.97401 7.96689,6.45725 2.93277,1.82997 6.60302,3.87831 8.15613,4.55187 l 2.82383,1.22466 v 4.94493 c 0,2.71971 0.13656,6.25147 0.30347,7.84835 l 0.30346,2.90343 2.40708,1.17857 c 2.23185,1.09278 2.8524,1.16732 8.52452,1.02399 3.36459,-0.085 7.01984,-0.26734 8.12277,-0.40517 z"
       id="path13" />
    <path
       style="fill:#ffffff;stroke-width:1.36818"
       d="m 198.59405,322.81919 c -9.41971,-1.68991 -26.36562,-8.4723 -35.07768,-14.03939 -21.49093,-13.73293 -38.00244,-36.04634 -45.24171,-61.13899 -3.44043,-11.92518 -3.55823,-40.73214 -0.21594,-52.81043 5.53757,-20.01158 14.32559,-34.33836 30.58449,-49.86076 12.84667,-12.26475 30.82475,-21.96161 47.03277,-25.36814 12.52504,-2.63245 33.59757,-2.59807 46.30757,0.0756 33.11899,6.9668 63.23987,34.27106 75.04711,68.02943 7.11742,20.34959 6.44538,50.18494 -1.59239,70.69484 -11.32146,28.88889 -37.84567,53.28444 -67.79746,62.35651 -9.02707,2.7342 -38.4122,3.96922 -49.04676,2.06137 z m 30.98677,-19.35658 c 0.903,-0.903 1.64182,-5.13808 1.64182,-9.41128 0,-7.48045 0.16541,-7.83711 4.44659,-9.58775 6.62974,-2.71101 18.81825,-14.7961 21.72852,-21.54416 3.44196,-7.98085 3.43144,-22.58833 -0.0221,-30.64503 -1.41832,-3.3088 -4.58847,-7.70707 -7.04479,-9.77392 -5.10129,-4.29245 -17.21212,-10.60352 -25.26507,-13.16587 -13.83426,-4.40188 -21.08031,-10.11985 -21.16129,-16.69871 -0.14262,-11.58748 9.96714,-16.4924 23.13428,-11.22396 2.99684,1.1991 5.80524,3.30322 6.24089,4.67581 0.43564,1.3726 2.04276,4.08561 3.57136,6.02891 2.35223,2.99038 3.87348,3.53328 9.90054,3.53328 7.47422,0 13.20285,-2.7199 13.20285,-6.26858 0,-1.10488 -1.22884,-5.50511 -2.73073,-9.77828 -3.20986,-9.13264 -10.27014,-16.99558 -19.50222,-21.71939 l -6.49886,-3.32529 v -7.22831 c 0,-3.97558 -0.73882,-7.96713 -1.64182,-8.87013 -2.16245,-2.16246 -19.18117,-2.16246 -21.34363,0 -0.903,0.903 -1.64181,5.13695 -1.64181,9.40878 v 7.76697 l -6.61025,2.84365 c -7.35707,3.16493 -17.18944,12.96482 -20.17362,20.10698 -2.29938,5.50319 -2.61334,24.69781 -0.49584,30.31429 3.43364,9.10746 12.47716,15.42603 33.90681,23.69018 19.13873,7.38067 25.22625,15.81413 18.02417,24.97009 -5.5668,7.07705 -20.26976,5.92597 -26.55371,-2.07888 -7.21894,-9.19588 -7.24198,-9.20938 -15.71704,-9.20938 -6.7718,0 -8.35839,0.4762 -10.04376,3.01449 -1.68136,2.53227 -1.72527,3.93247 -0.27451,8.75298 3.70713,12.31787 9.02365,18.979 20.0707,25.14683 l 7.86705,4.39235 v 7.32641 c 0,5.53414 0.58572,7.66756 2.39431,8.72097 3.35608,1.95473 18.59375,1.83333 20.59113,-0.16405 z"
       id="path25"
       inkscape:export-filename="infocash-coin-white.png"
       inkscape:export-xdpi="96"
       inkscape:export-ydpi="96" />
    <path
       style="fill:#ffffff;stroke-width:1.36818"
       d="m 52.203239,279.45103 c -0.818295,-2.06937 -3.185341,-10.22716 -5.260104,-18.1284 -3.480081,-13.25307 -3.772621,-16.37961 -3.776487,-40.36135 -0.0037,-22.69409 0.40408,-27.64613 3.210604,-38.99317 C 59.790763,127.736 95.392016,83.638366 143.96054,61.096175 c 26.87505,-12.473561 42.93792,-15.94562 73.77119,-15.945958 23.38378,-2.56e-4 37.28734,1.958889 55.22044,7.781086 12.78119,4.149571 33.46073,14.333195 45.14998,22.234078 4.515,3.051733 8.84201,5.550566 9.61558,5.55296 0.77357,0.0024 5.89522,-3.654185 11.38146,-8.125734 10.18907,-8.304582 13.34242,-9.102222 14.5902,-3.690585 0.77273,3.351274 5.54052,43.234858 6.91593,57.852988 0.85796,9.11859 0.72801,9.83636 -1.93375,10.68117 -2.66583,0.8461 -55.14003,-14.74686 -62.80237,-18.66203 -4.84494,-2.47559 -3.69644,-5.43054 5.13068,-13.20049 4.515,-3.97427 8.2037,-7.959244 8.19712,-8.855501 -0.0139,-1.890421 -12.078,-9.807251 -23.9312,-15.704351 -4.515,-2.246262 -15.28943,-6.155175 -23.94317,-8.686473 -15.58498,-4.558749 -15.99339,-4.601856 -43.09771,-4.549118 -26.03537,0.05066 -27.99455,0.242205 -40.36135,3.946075 -16.72276,5.008485 -32.5214,12.322249 -45.27255,20.958301 C 76.388691,130.74711 51.799917,199.3687 70.723074,265.34174 l 2.133903,7.43957 -5.986454,5.17528 c -7.41085,6.40666 -12.519029,6.92713 -14.667284,1.49444 z"
       id="path26"
       inkscape:export-filename="infocash-arrow1-white.png"
       inkscape:export-xdpi="96"
       inkscape:export-ydpi="96" />
    <path
       style="fill:#ffffff;stroke-width:1.36818"
       d="m 185.38857,394.14263 c -22.48495,-4.29837 -46.69031,-14.3722 -65.67271,-27.33177 -4.515,-3.08246 -9.06313,-5.60595 -10.10697,-5.60774 -1.04385,-0.002 -5.86462,3.38299 -10.712836,7.52174 -8.463733,7.22519 -12.939887,9.09033 -14.757559,6.14929 -0.467631,-0.75665 -2.564011,-16.30261 -4.658623,-34.54658 -3.828385,-33.34507 -3.747557,-36.59132 0.911079,-36.59132 2.006805,0 37.388729,10.82549 54.716949,16.74126 11.43065,3.90236 11.44308,6.45953 0.0806,16.58092 l -8.47054,7.54531 3.33986,2.84445 c 6.75227,5.7507 36.1942,19.30446 49.85802,22.95243 12.48222,3.33251 15.90106,3.65313 38.99317,3.65682 23.4118,0.004 26.33453,-0.27862 38.94505,-3.76233 46.64444,-12.88575 86.2786,-47.4223 103.07512,-89.81794 9.14034,-23.0709 10.53204,-31.02578 10.53197,-60.19998 -5e-5,-22.10581 -0.44312,-28.20411 -2.58451,-35.57272 -4.82516,-16.60369 -4.82779,-16.58839 3.87116,-22.57959 7.12768,-4.90902 7.84736,-5.12964 9.93225,-3.04475 2.67778,2.67778 7.83316,19.7249 10.06552,33.28323 2.60323,15.81097 1.00346,57.50748 -2.72249,70.95932 -16.91304,61.06112 -57.75696,105.1205 -115.70273,124.81144 -7.525,2.55714 -18.29943,5.54678 -23.94317,6.64365 -14.24444,2.76846 -48.95894,2.42919 -64.98861,-0.63514 z"
       id="path27"
       inkscape:export-filename="infocash-arrow2-white.png"
       inkscape:export-xdpi="96"
       inkscape:export-ydpi="96" />
    <path
       style="fill:#ffffff;stroke-width:0.684091"
       d="m 229.51241,493.93606 c -2.89493,-1.36002 -5.76752,-3.61708 -9.74746,-7.65879 -4.88906,-4.96494 -5.91721,-6.44281 -7.69602,-11.06232 -2.47781,-6.43477 -2.52679,-8.15547 -0.42596,-14.96412 2.27636,-7.37749 7.429,-13.25853 14.91341,-17.02162 4.90425,-2.46581 5.76202,-2.67483 10.97658,-2.67483 4.2443,0 6.97018,0.43746 10.91779,1.75213 4.52377,1.50656 5.4684,2.10334 6.73957,4.2578 l 1.47837,2.50565 -1.76431,3.59736 c -1.62079,3.30473 -1.89806,3.54651 -3.40845,2.97226 -0.90428,-0.3438 -4.574,-0.84016 -8.15494,-1.10302 -6.41673,-0.47102 -6.56366,-0.44747 -10.16969,1.6301 -2.35724,1.35809 -4.32814,3.17959 -5.54014,5.12017 -1.65926,2.65671 -1.88125,3.68219 -1.88125,8.69061 0,5.03733 0.19757,5.93749 1.74986,7.97264 3.68471,4.83091 11.59207,6.44924 19.067,3.90228 l 3.27423,-1.11565 1.62461,1.97076 c 1.79892,2.1822 5.96629,9.19269 5.62632,9.46478 -0.11874,0.095 -1.62822,0.98745 -3.3544,1.98313 -2.9507,1.70201 -3.64663,1.80731 -11.62954,1.75965 -7.82998,-0.0467 -8.81058,-0.2008 -12.59558,-1.97897 z"
       id="path28"
       inkscape:export-filename="infocash-name-white-v2.png"
       inkscape:export-xdpi="96"
       inkscape:export-ydpi="96" />
    <path
       style="fill:#ffffff;stroke-width:0.684091"
       d="m 167.1762,494.0522 c -1.92742,-1.01694 -5.66608,-3.86221 -8.30811,-6.32283 -6.77365,-6.30854 -9.05224,-11.37654 -9.05224,-20.13387 0,-5.63203 0.24011,-6.84226 2.29515,-11.56825 1.7954,-4.12889 3.11365,-6.00768 6.05417,-8.62852 5.63579,-5.0231 10.31211,-6.84435 17.57381,-6.84435 8.31261,0 12.91207,2.30772 20.10923,10.08957 6.25116,6.759 8.0108,11.17363 8.0108,20.09766 0,4.98309 -0.22586,5.86561 -2.82658,11.04441 -3.22589,6.42371 -5.95749,9.16877 -12.05421,12.11362 -3.92591,1.8963 -4.85344,2.06343 -11.2875,2.03381 -6.2624,-0.0288 -7.38389,-0.22949 -10.51452,-1.88125 z m 15.69973,-13.18354 c 2.58785,-1.62485 3.66114,-2.88509 4.96179,-5.82607 1.49249,-3.3748 1.61651,-4.35314 1.23143,-9.71423 -0.41775,-5.81611 -0.49635,-6.03239 -3.22296,-8.86888 -2.73386,-2.84402 -2.89308,-2.90738 -7.3062,-2.90738 -3.97448,0 -4.85665,0.25388 -7.41199,2.1331 -4.58064,3.36864 -6.26215,7.42102 -6.26215,15.09155 v 6.32469 l 2.87879,2.93328 c 2.81373,2.86698 2.97995,2.93298 7.35398,2.92028 3.78717,-0.011 4.98284,-0.33175 7.77731,-2.08634 z"
       id="path29" />
    <path
       style="fill:#ffffff;stroke-width:0.684091"
       d="m 31.981238,494.09619 -2.56534,-1.05249 v -26.24466 -26.24466 h 5.004798 5.004797 l 1.494064,3.60469 c 1.438152,3.4698 1.494063,4.49382 1.494063,27.36363 v 23.75893 l -3.933521,-0.0665 c -2.163437,-0.0366 -5.087924,-0.5401 -6.498861,-1.11896 z"
       id="path30" />
    <path
       style="fill:#ffffff;stroke-width:0.684091"
       d="m 56.608501,493.80392 -3.24943,-1.43308 V 467.1467 441.92256 h 5.695523 c 5.035592,0 5.857741,0.17834 7.095531,1.5392 0.770004,0.84656 5.518237,7.69602 10.551629,15.22102 l 9.151622,13.68181 0.184111,-15.22101 0.18411,-15.22102 h 5.801683 5.801683 v 2.04647 c 0,1.3056 0.495315,2.35581 1.368181,2.90092 1.325556,0.82782 1.368186,1.59532 1.368186,24.63306 v 23.77862 h -5.448926 c -5.073333,0 -5.609303,-0.14082 -7.775685,-2.04293 -1.27972,-1.12361 -5.515878,-7.13177 -9.413684,-13.35147 -3.897806,-6.2197 -7.775856,-12.14984 -8.617889,-13.17809 l -1.530968,-1.86955 -0.0246,15.22102 -0.0246,15.22102 -3.933521,-0.0223 c -2.459835,-0.014 -5.150914,-0.55921 -7.182952,-1.4554 z"
       id="path31" />
    <path
       style="fill:#ffffff;stroke-width:0.684091"
       d="m 114.07212,494.09619 -2.56534,-1.05249 v -25.56057 -25.56057 h 14.3659 14.3659 v 1.62646 c 0,0.89456 0.46176,2.00969 1.02614,2.47808 0.61832,0.51317 1.02613,2.01005 1.02613,3.76648 0,3.58354 -0.40746,3.73624 -10.00482,3.74918 l -6.92642,0.009 -0.42756,2.13778 c -0.23515,1.17578 -0.42755,3.01206 -0.42755,4.08061 v 1.94283 l 7.01022,0.19496 7.01023,0.19495 0.61197,2.90739 c 0.35628,1.69263 1.00009,2.90738 1.54091,2.90738 0.64143,0 0.92893,0.92935 0.92893,3.00282 v 3.00281 l -8.11307,0.48747 -8.11308,0.48746 -0.43396,5.57392 c -0.23867,3.06566 -0.4358,7.65185 -0.43805,10.19154 l -0.004,4.61761 -3.93352,-0.0665 c -2.16344,-0.0366 -5.08793,-0.5401 -6.49886,-1.11896 z"
       id="path32" />
    <path
       style="fill:#ffffff;stroke-width:0.684091"
       d="m 263.49173,493.82159 c -2.24191,-1.04114 -2.85601,-1.65423 -2.52718,-2.523 0.23891,-0.6312 4.75179,-11.99903 10.02862,-25.26184 l 9.59424,-24.11419 5.24658,0.0212 5.24658,0.0211 2.11814,2.88624 c 1.88874,2.57365 21.15485,48.93443 20.57613,49.51314 -0.12656,0.12656 -2.07764,0.42321 -4.33575,0.65923 -3.67349,0.38396 -4.38939,0.24135 -6.80135,-1.3548 -1.94158,-1.28488 -3.0683,-2.7441 -4.0276,-5.21617 l -1.3319,-3.43223 h -9.64534 -9.64534 l -1.737,4.95966 -1.737,4.95965 -4.03013,0.12868 c -2.81744,0.09 -4.92127,-0.28516 -6.9917,-1.24667 z m 28.61498,-22.50588 c 0,-2.02369 -3.28459,-8.18634 -4.36318,-8.18634 -0.50582,0 -1.54817,1.61616 -2.31633,3.59147 -0.76817,1.97532 -1.61343,4.1302 -1.87836,4.78864 -0.42971,1.06796 0.006,1.19716 4.03809,1.19716 4.08835,0 4.51978,-0.13277 4.51978,-1.39093 z"
       id="path33" />
    <path
       style="fill:#ffffff;stroke-width:0.684091"
       d="m 327.67942,493.9451 c -2.06937,-1.07515 -4.95852,-2.99555 -6.42032,-4.26756 -3.03601,-2.64184 -3.00602,-3.45572 0.29528,-8.01303 l 2.03591,-2.81049 4.76385,2.39903 c 3.57421,1.79995 5.62919,2.39904 8.22908,2.39904 4.61588,0 7.51438,-2.02602 7.51438,-5.25247 0,-2.1528 -0.28089,-2.40093 -5.9858,-5.28767 -7.48551,-3.78775 -14.29277,-10.30091 -15.25856,-14.59935 -0.78374,-3.48815 0.96933,-9.25866 3.8643,-12.71996 3.26051,-3.89836 7.26325,-5.27652 14.05093,-4.83778 6.61935,0.42785 13.59049,3.0767 13.59049,5.16403 0,0.66463 0.53698,1.50892 1.1933,1.87621 1.1071,0.61957 1.05837,0.94292 -0.67451,4.4762 l -1.86781,3.80839 -3.8572,-1.70584 c -2.35976,-1.0436 -5.12844,-1.70584 -7.13173,-1.70584 -2.82741,0 -3.52005,0.2918 -5.07271,2.13703 -1.6027,1.90471 -1.69716,2.29516 -0.86877,3.59148 0.51119,0.79994 3.98662,3.0417 7.72318,4.98168 5.379,2.79271 7.61053,4.43096 10.71602,7.86704 l 3.92227,4.33981 0.0113,5.04993 c 0.0127,5.68921 -1.1398,8.29063 -4.95903,11.19376 -4.64998,3.53461 -6.13316,3.93893 -14.32131,3.90408 -7.13572,-0.0304 -8.01925,-0.18319 -11.49249,-1.98772 z"
       id="path34" />
    <path
       style="fill:#ffffff;stroke-width:0.684091"
       d="m 370.94815,493.73624 -2.90738,-1.46052 v -25.20536 -25.20535 l 5.26023,0.1998 5.26024,0.19979 0.57409,2.2233 c 0.32042,1.24089 1.01887,2.22329 1.58067,2.22329 0.82415,0 1.00658,1.3442 1.00658,7.41672 v 7.41671 l 2.64471,0.79237 c 1.45459,0.43581 4.68692,0.79238 7.18295,0.79238 h 4.53824 v -10.60341 -10.6034 h 5.46121 5.4612 l 1.78402,3.52059 1.78402,3.5206 -0.23329,22.41839 c -0.12832,12.33011 -0.42604,22.61088 -0.6616,22.84615 -1.27909,1.27744 -5.61296,1.13545 -9.47964,-0.31059 l -4.11592,-1.53925 v -9.15182 -9.15181 h -7.18295 -7.18295 v 10.6034 10.60341 l -3.93352,-0.0424 c -2.58206,-0.0279 -4.93243,-0.54423 -6.84091,-1.50295 z"
       id="path35" />
  </g>
</svg>
