<?xml version="1.0" encoding="UTF-8" standalone="no"?>
<!-- Created with Inkscape (http://www.inkscape.org/) -->

<svg
   version="1.1"
   id="svg1"
   width="350.81714"
   height="351.67661"
   viewBox="0 0 350.81714 351.67661"
   sodipodi:docname="Captura_de_Tela__8_-removebg-preview.png"
   inkscape:export-filename="infocash-logo-white.png"
   inkscape:export-xdpi="96"
   inkscape:export-ydpi="96"
   inkscape:dataloss="true"
   xmlns:inkscape="http://www.inkscape.org/namespaces/inkscape"
   xmlns:sodipodi="http://sodipodi.sourceforge.net/DTD/sodipodi-0.dtd"
   xmlns="http://www.w3.org/2000/svg"
   xmlns:svg="http://www.w3.org/2000/svg">
  <defs
     id="defs1" />
  <sodipodi:namedview
     id="namedview1"
     pagecolor="#505050"
     bordercolor="#eeeeee"
     borderopacity="1"
     inkscape:showpageshadow="0"
     inkscape:pageopacity="0"
     inkscape:pagecheckerboard="0"
     inkscape:deskcolor="#505050"
     showgrid="false"
     inkscape:zoom="0.51682243"
     inkscape:cx="184.783"
     inkscape:cy="349.24955"
     inkscape:window-width="1366"
     inkscape:window-height="705"
     inkscape:window-x="-8"
     inkscape:window-y="-8"
     inkscape:window-maximized="1"
     inkscape:current-layer="g1">
    <inkscape:page
       x="0"
       y="0"
       width="350.81714"
       height="351.67661"
       id="page2"
       margin="0"
       bleed="0" />
  </sodipodi:namedview>
  <g
     inkscape:groupmode="layer"
     inkscape:label="Image"
     id="g1"
     transform="translate(-174.51202,-57.463847)">
    <path
       style="fill:#000000;stroke-width:1.36818"
       d="m 183.54864,291.76466 c -0.81829,-2.06937 -3.18534,-10.22715 -5.2601,-18.1284 -3.48008,-13.25307 -3.77262,-16.37961 -3.77649,-40.36135 -0.004,-22.69409 0.40408,-27.64613 3.21061,-38.99317 13.40218,-54.18629 48.79219,-98.02496 97.48886,-120.762359 26.98449,-12.599571 42.88253,-16.055193 73.86561,-16.055532 23.38378,-2.56e-4 37.28735,1.958888 55.22044,7.781086 12.7812,4.14957 33.46074,14.333194 45.14999,22.234077 4.51499,3.051734 8.842,5.550567 9.61557,5.552961 0.77357,0.0024 5.89522,-3.654185 11.38147,-8.125734 10.18906,-8.304583 13.34242,-9.102223 14.5902,-3.690586 0.77272,3.351274 5.54052,43.234857 6.91592,57.852987 0.8561,9.09883 0.72366,9.83775 -1.91337,10.67471 -1.77262,0.5626 -11.94855,-2.00544 -27.1842,-6.86031 -33.46419,-10.66343 -38.71695,-12.72579 -38.71695,-15.20125 0,-1.15436 4.08477,-5.8934 9.07728,-10.5312 l 9.0773,-8.43237 -7.51471,-4.98949 c -12.58682,-8.357172 -25.60766,-14.259285 -42.10804,-19.0868 -15.58599,-4.559999 -15.99163,-4.602824 -43.09771,-4.550082 -26.03537,0.05066 -27.99455,0.242206 -40.36135,3.946076 -58.35079,17.476126 -98.72679,61.159616 -110.6745,119.740656 -4.68744,22.98305 -3.49109,50.24614 3.19247,72.75213 1.17264,3.94871 2.13207,7.6552 2.13207,8.23665 0,2.05683 -12.75126,10.7598 -15.76484,10.7598 -2.06289,0 -3.54178,-1.22413 -4.54553,-3.7625 z"
       id="path16"
       inkscape:export-filename="infocash-brand\infocash-brand\infocash-arrow1-black.svg"
       inkscape:export-xdpi="96"
       inkscape:export-ydpi="96" />
    <path
       style="fill:#000000;stroke-width:1.36818"
       d="m 313.99761,405.71468 c -22.60445,-4.79527 -44.64889,-14.10937 -62.93634,-26.59153 -4.515,-3.08172 -9.06314,-5.60461 -10.10698,-5.6064 -1.04384,-0.002 -5.86461,3.38299 -10.71283,7.52174 -8.46374,7.22519 -12.93989,9.09033 -14.75756,6.14929 -0.46763,-0.75664 -2.56401,-16.3026 -4.65862,-34.54658 -3.80679,-33.15695 -3.73291,-36.59132 0.78712,-36.59132 1.07009,0 14.69361,4.06162 30.27451,9.02584 15.58089,4.96421 29.40634,9.3458 30.72321,9.73684 4.9018,1.4556 2.67726,6.76047 -6.15681,14.68214 l -8.55114,7.66796 3.42046,2.69995 c 6.60318,5.21228 32.27068,17.52202 43.7818,20.99707 17.85308,5.38962 29.83063,6.75571 51.99089,5.92976 15.49402,-0.57749 22.6531,-1.5186 32.69028,-4.29734 25.05778,-6.93714 47.8019,-19.84593 66.31107,-37.63594 22.21984,-21.35649 34.23726,-41.3943 43.1235,-71.90399 3.33981,-11.46684 3.58646,-14.1954 3.58646,-39.67726 0,-24.13127 -0.36364,-28.69269 -3.07841,-38.61487 -1.69313,-6.18819 -3.07841,-12.1161 -3.07841,-13.17315 0,-1.05705 3.40377,-4.26618 7.56394,-7.1314 7.01586,-4.83201 7.72681,-5.04662 9.8117,-2.96173 2.83865,2.83865 8.00051,20.33409 10.07462,34.14654 2.48741,16.56484 0.98826,56.64191 -2.60316,69.59105 -19.30322,69.59922 -69.87522,117.3994 -139.52174,131.87465 -15.94612,3.31422 -49.24974,2.68158 -67.97756,-1.29132 z"
       id="path17"
       inkscape:export-filename="infocash-brand\infocash-brand\infocash-arrow2-black.svg"
       inkscape:export-xdpi="96"
       inkscape:export-ydpi="96" />
  </g>
</svg>
