<?xml version="1.0" encoding="UTF-8" standalone="no"?>
<!-- Created with Inkscape (http://www.inkscape.org/) -->

<svg
   version="1.1"
   id="svg1"
   width="317.28305"
   height="238.8299"
   viewBox="0 0 317.28305 238.8299"
   sodipodi:docname="Captura_de_Tela__8_-removebg-preview.png"
   inkscape:export-filename="infocash-logo-white.png"
   inkscape:export-xdpi="96"
   inkscape:export-ydpi="96"
   inkscape:dataloss="true"
   xmlns:inkscape="http://www.inkscape.org/namespaces/inkscape"
   xmlns:sodipodi="http://sodipodi.sourceforge.net/DTD/sodipodi-0.dtd"
   xmlns="http://www.w3.org/2000/svg"
   xmlns:svg="http://www.w3.org/2000/svg">
  <defs
     id="defs1" />
  <sodipodi:namedview
     id="namedview1"
     pagecolor="#505050"
     bordercolor="#eeeeee"
     borderopacity="1"
     inkscape:showpageshadow="0"
     inkscape:pageopacity="0"
     inkscape:pagecheckerboard="0"
     inkscape:deskcolor="#505050"
     showgrid="false"
     inkscape:zoom="0.51682243"
     inkscape:cx="184.783"
     inkscape:cy="349.24955"
     inkscape:window-width="1366"
     inkscape:window-height="705"
     inkscape:window-x="-8"
     inkscape:window-y="-8"
     inkscape:window-maximized="1"
     inkscape:current-layer="g1">
    <inkscape:page
       x="0"
       y="0"
       width="317.28305"
       height="238.8299"
       id="page2"
       margin="0"
       bleed="0" />
  </sodipodi:namedview>
  <g
     inkscape:groupmode="layer"
     inkscape:label="Image"
     id="g1"
     transform="translate(-76.74189,-157.83282)">
    <path
       style="fill:#ffffff;stroke-width:1.36818"
       d="m 185.38857,394.14263 c -22.48495,-4.29837 -46.69031,-14.3722 -65.67271,-27.33177 -4.515,-3.08246 -9.06313,-5.60595 -10.10697,-5.60774 -1.04385,-0.002 -5.86462,3.38299 -10.712836,7.52174 -8.463733,7.22519 -12.939887,9.09033 -14.757559,6.14929 -0.467631,-0.75665 -2.564011,-16.30261 -4.658623,-34.54658 -3.828385,-33.34507 -3.747557,-36.59132 0.911079,-36.59132 2.006805,0 37.388729,10.82549 54.716949,16.74126 11.43065,3.90236 11.44308,6.45953 0.0806,16.58092 l -8.47054,7.54531 3.33986,2.84445 c 6.75227,5.7507 36.1942,19.30446 49.85802,22.95243 12.48222,3.33251 15.90106,3.65313 38.99317,3.65682 23.4118,0.004 26.33453,-0.27862 38.94505,-3.76233 46.64444,-12.88575 86.2786,-47.4223 103.07512,-89.81794 9.14034,-23.0709 10.53204,-31.02578 10.53197,-60.19998 -5e-5,-22.10581 -0.44312,-28.20411 -2.58451,-35.57272 -4.82516,-16.60369 -4.82779,-16.58839 3.87116,-22.57959 7.12768,-4.90902 7.84736,-5.12964 9.93225,-3.04475 2.67778,2.67778 7.83316,19.7249 10.06552,33.28323 2.60323,15.81097 1.00346,57.50748 -2.72249,70.95932 -16.91304,61.06112 -57.75696,105.1205 -115.70273,124.81144 -7.525,2.55714 -18.29943,5.54678 -23.94317,6.64365 -14.24444,2.76846 -48.95894,2.42919 -64.98861,-0.63514 z"
       id="path27"
       inkscape:export-filename="infocash-arrow2-white.png"
       inkscape:export-xdpi="96"
       inkscape:export-ydpi="96" />
  </g>
</svg>
