<?xml version="1.0" encoding="UTF-8" standalone="no"?>
<!-- Created with Inkscape (http://www.inkscape.org/) -->

<svg
   version="1.1"
   id="svg1"
   width="381.16302"
   height="55.381958"
   viewBox="0 0 381.16302 55.381958"
   sodipodi:docname="Captura_de_Tela__8_-removebg-preview.png"
   inkscape:export-filename="infocash-logo-white.png"
   inkscape:export-xdpi="96"
   inkscape:export-ydpi="96"
   inkscape:version="1.4 (86a8ad7, 2024-10-11)"
   inkscape:dataloss="true"
   xmlns:inkscape="http://www.inkscape.org/namespaces/inkscape"
   xmlns:sodipodi="http://sodipodi.sourceforge.net/DTD/sodipodi-0.dtd"
   xmlns="http://www.w3.org/2000/svg"
   xmlns:svg="http://www.w3.org/2000/svg">
  <defs
     id="defs1" />
  <sodipodi:namedview
     id="namedview1"
     pagecolor="#505050"
     bordercolor="#eeeeee"
     borderopacity="1"
     inkscape:showpageshadow="0"
     inkscape:pageopacity="0"
     inkscape:pagecheckerboard="0"
     inkscape:deskcolor="#505050"
     showgrid="false"
     inkscape:zoom="0.51682243"
     inkscape:cx="184.783"
     inkscape:cy="349.24955"
     inkscape:window-width="1366"
     inkscape:window-height="705"
     inkscape:window-x="-8"
     inkscape:window-y="-8"
     inkscape:window-maximized="1"
     inkscape:current-layer="g1">
    <inkscape:page
       x="0"
       y="0"
       width="381.16302"
       height="55.381958"
       id="page2"
       margin="0"
       bleed="0" />
  </sodipodi:namedview>
  <g
     inkscape:groupmode="layer"
     inkscape:label="Image"
     id="g1"
     transform="translate(-29.415897,-440.55438)">
    <path
       style="fill:#ffffff;stroke-width:0.684091"
       d="m 229.51241,493.93606 c -2.89493,-1.36002 -5.76752,-3.61708 -9.74746,-7.65879 -4.88906,-4.96494 -5.91721,-6.44281 -7.69602,-11.06232 -2.47781,-6.43477 -2.52679,-8.15547 -0.42596,-14.96412 2.27636,-7.37749 7.429,-13.25853 14.91341,-17.02162 4.90425,-2.46581 5.76202,-2.67483 10.97658,-2.67483 4.2443,0 6.97018,0.43746 10.91779,1.75213 4.52377,1.50656 5.4684,2.10334 6.73957,4.2578 l 1.47837,2.50565 -1.76431,3.59736 c -1.62079,3.30473 -1.89806,3.54651 -3.40845,2.97226 -0.90428,-0.3438 -4.574,-0.84016 -8.15494,-1.10302 -6.41673,-0.47102 -6.56366,-0.44747 -10.16969,1.6301 -2.35724,1.35809 -4.32814,3.17959 -5.54014,5.12017 -1.65926,2.65671 -1.88125,3.68219 -1.88125,8.69061 0,5.03733 0.19757,5.93749 1.74986,7.97264 3.68471,4.83091 11.59207,6.44924 19.067,3.90228 l 3.27423,-1.11565 1.62461,1.97076 c 1.79892,2.1822 5.96629,9.19269 5.62632,9.46478 -0.11874,0.095 -1.62822,0.98745 -3.3544,1.98313 -2.9507,1.70201 -3.64663,1.80731 -11.62954,1.75965 -7.82998,-0.0467 -8.81058,-0.2008 -12.59558,-1.97897 z"
       id="path28"
       inkscape:export-filename="infocash-name-white-v2.png"
       inkscape:export-xdpi="96"
       inkscape:export-ydpi="96" />
    <path
       style="fill:#ffffff;stroke-width:0.684091"
       d="m 167.1762,494.0522 c -1.92742,-1.01694 -5.66608,-3.86221 -8.30811,-6.32283 -6.77365,-6.30854 -9.05224,-11.37654 -9.05224,-20.13387 0,-5.63203 0.24011,-6.84226 2.29515,-11.56825 1.7954,-4.12889 3.11365,-6.00768 6.05417,-8.62852 5.63579,-5.0231 10.31211,-6.84435 17.57381,-6.84435 8.31261,0 12.91207,2.30772 20.10923,10.08957 6.25116,6.759 8.0108,11.17363 8.0108,20.09766 0,4.98309 -0.22586,5.86561 -2.82658,11.04441 -3.22589,6.42371 -5.95749,9.16877 -12.05421,12.11362 -3.92591,1.8963 -4.85344,2.06343 -11.2875,2.03381 -6.2624,-0.0288 -7.38389,-0.22949 -10.51452,-1.88125 z m 15.69973,-13.18354 c 2.58785,-1.62485 3.66114,-2.88509 4.96179,-5.82607 1.49249,-3.3748 1.61651,-4.35314 1.23143,-9.71423 -0.41775,-5.81611 -0.49635,-6.03239 -3.22296,-8.86888 -2.73386,-2.84402 -2.89308,-2.90738 -7.3062,-2.90738 -3.97448,0 -4.85665,0.25388 -7.41199,2.1331 -4.58064,3.36864 -6.26215,7.42102 -6.26215,15.09155 v 6.32469 l 2.87879,2.93328 c 2.81373,2.86698 2.97995,2.93298 7.35398,2.92028 3.78717,-0.011 4.98284,-0.33175 7.77731,-2.08634 z"
       id="path29" />
    <path
       style="fill:#ffffff;stroke-width:0.684091"
       d="m 31.981238,494.09619 -2.56534,-1.05249 v -26.24466 -26.24466 h 5.004798 5.004797 l 1.494064,3.60469 c 1.438152,3.4698 1.494063,4.49382 1.494063,27.36363 v 23.75893 l -3.933521,-0.0665 c -2.163437,-0.0366 -5.087924,-0.5401 -6.498861,-1.11896 z"
       id="path30" />
    <path
       style="fill:#ffffff;stroke-width:0.684091"
       d="m 56.608501,493.80392 -3.24943,-1.43308 V 467.1467 441.92256 h 5.695523 c 5.035592,0 5.857741,0.17834 7.095531,1.5392 0.770004,0.84656 5.518237,7.69602 10.551629,15.22102 l 9.151622,13.68181 0.184111,-15.22101 0.18411,-15.22102 h 5.801683 5.801683 v 2.04647 c 0,1.3056 0.495315,2.35581 1.368181,2.90092 1.325556,0.82782 1.368186,1.59532 1.368186,24.63306 v 23.77862 h -5.448926 c -5.073333,0 -5.609303,-0.14082 -7.775685,-2.04293 -1.27972,-1.12361 -5.515878,-7.13177 -9.413684,-13.35147 -3.897806,-6.2197 -7.775856,-12.14984 -8.617889,-13.17809 l -1.530968,-1.86955 -0.0246,15.22102 -0.0246,15.22102 -3.933521,-0.0223 c -2.459835,-0.014 -5.150914,-0.55921 -7.182952,-1.4554 z"
       id="path31" />
    <path
       style="fill:#ffffff;stroke-width:0.684091"
       d="m 114.07212,494.09619 -2.56534,-1.05249 v -25.56057 -25.56057 h 14.3659 14.3659 v 1.62646 c 0,0.89456 0.46176,2.00969 1.02614,2.47808 0.61832,0.51317 1.02613,2.01005 1.02613,3.76648 0,3.58354 -0.40746,3.73624 -10.00482,3.74918 l -6.92642,0.009 -0.42756,2.13778 c -0.23515,1.17578 -0.42755,3.01206 -0.42755,4.08061 v 1.94283 l 7.01022,0.19496 7.01023,0.19495 0.61197,2.90739 c 0.35628,1.69263 1.00009,2.90738 1.54091,2.90738 0.64143,0 0.92893,0.92935 0.92893,3.00282 v 3.00281 l -8.11307,0.48747 -8.11308,0.48746 -0.43396,5.57392 c -0.23867,3.06566 -0.4358,7.65185 -0.43805,10.19154 l -0.004,4.61761 -3.93352,-0.0665 c -2.16344,-0.0366 -5.08793,-0.5401 -6.49886,-1.11896 z"
       id="path32" />
    <path
       style="fill:#ffffff;stroke-width:0.684091"
       d="m 263.49173,493.82159 c -2.24191,-1.04114 -2.85601,-1.65423 -2.52718,-2.523 0.23891,-0.6312 4.75179,-11.99903 10.02862,-25.26184 l 9.59424,-24.11419 5.24658,0.0212 5.24658,0.0211 2.11814,2.88624 c 1.88874,2.57365 21.15485,48.93443 20.57613,49.51314 -0.12656,0.12656 -2.07764,0.42321 -4.33575,0.65923 -3.67349,0.38396 -4.38939,0.24135 -6.80135,-1.3548 -1.94158,-1.28488 -3.0683,-2.7441 -4.0276,-5.21617 l -1.3319,-3.43223 h -9.64534 -9.64534 l -1.737,4.95966 -1.737,4.95965 -4.03013,0.12868 c -2.81744,0.09 -4.92127,-0.28516 -6.9917,-1.24667 z m 28.61498,-22.50588 c 0,-2.02369 -3.28459,-8.18634 -4.36318,-8.18634 -0.50582,0 -1.54817,1.61616 -2.31633,3.59147 -0.76817,1.97532 -1.61343,4.1302 -1.87836,4.78864 -0.42971,1.06796 0.006,1.19716 4.03809,1.19716 4.08835,0 4.51978,-0.13277 4.51978,-1.39093 z"
       id="path33" />
    <path
       style="fill:#ffffff;stroke-width:0.684091"
       d="m 327.67942,493.9451 c -2.06937,-1.07515 -4.95852,-2.99555 -6.42032,-4.26756 -3.03601,-2.64184 -3.00602,-3.45572 0.29528,-8.01303 l 2.03591,-2.81049 4.76385,2.39903 c 3.57421,1.79995 5.62919,2.39904 8.22908,2.39904 4.61588,0 7.51438,-2.02602 7.51438,-5.25247 0,-2.1528 -0.28089,-2.40093 -5.9858,-5.28767 -7.48551,-3.78775 -14.29277,-10.30091 -15.25856,-14.59935 -0.78374,-3.48815 0.96933,-9.25866 3.8643,-12.71996 3.26051,-3.89836 7.26325,-5.27652 14.05093,-4.83778 6.61935,0.42785 13.59049,3.0767 13.59049,5.16403 0,0.66463 0.53698,1.50892 1.1933,1.87621 1.1071,0.61957 1.05837,0.94292 -0.67451,4.4762 l -1.86781,3.80839 -3.8572,-1.70584 c -2.35976,-1.0436 -5.12844,-1.70584 -7.13173,-1.70584 -2.82741,0 -3.52005,0.2918 -5.07271,2.13703 -1.6027,1.90471 -1.69716,2.29516 -0.86877,3.59148 0.51119,0.79994 3.98662,3.0417 7.72318,4.98168 5.379,2.79271 7.61053,4.43096 10.71602,7.86704 l 3.92227,4.33981 0.0113,5.04993 c 0.0127,5.68921 -1.1398,8.29063 -4.95903,11.19376 -4.64998,3.53461 -6.13316,3.93893 -14.32131,3.90408 -7.13572,-0.0304 -8.01925,-0.18319 -11.49249,-1.98772 z"
       id="path34" />
    <path
       style="fill:#ffffff;stroke-width:0.684091"
       d="m 370.94815,493.73624 -2.90738,-1.46052 v -25.20536 -25.20535 l 5.26023,0.1998 5.26024,0.19979 0.57409,2.2233 c 0.32042,1.24089 1.01887,2.22329 1.58067,2.22329 0.82415,0 1.00658,1.3442 1.00658,7.41672 v 7.41671 l 2.64471,0.79237 c 1.45459,0.43581 4.68692,0.79238 7.18295,0.79238 h 4.53824 v -10.60341 -10.6034 h 5.46121 5.4612 l 1.78402,3.52059 1.78402,3.5206 -0.23329,22.41839 c -0.12832,12.33011 -0.42604,22.61088 -0.6616,22.84615 -1.27909,1.27744 -5.61296,1.13545 -9.47964,-0.31059 l -4.11592,-1.53925 v -9.15182 -9.15181 h -7.18295 -7.18295 v 10.6034 10.60341 l -3.93352,-0.0424 c -2.58206,-0.0279 -4.93243,-0.54423 -6.84091,-1.50295 z"
       id="path35" />
  </g>
</svg>
