<?xml version="1.0" encoding="UTF-8" standalone="no"?>
<!-- Created with Inkscape (http://www.inkscape.org/) -->

<svg
   version="1.1"
   id="svg1"
   width="206.28052"
   height="206.23074"
   viewBox="0 0 206.28052 206.23074"
   sodipodi:docname="Captura_de_Tela__8_-removebg-preview.png"
   inkscape:export-filename="infocash-logo-white.png"
   inkscape:export-xdpi="96"
   inkscape:export-ydpi="96"
   inkscape:dataloss="true"
   xmlns:inkscape="http://www.inkscape.org/namespaces/inkscape"
   xmlns:sodipodi="http://sodipodi.sourceforge.net/DTD/sodipodi-0.dtd"
   xmlns="http://www.w3.org/2000/svg"
   xmlns:svg="http://www.w3.org/2000/svg">
  <defs
     id="defs1" />
  <sodipodi:namedview
     id="namedview1"
     pagecolor="#505050"
     bordercolor="#eeeeee"
     borderopacity="1"
     inkscape:showpageshadow="0"
     inkscape:pageopacity="0"
     inkscape:pagecheckerboard="0"
     inkscape:deskcolor="#505050"
     showgrid="false"
     inkscape:zoom="0.51682243"
     inkscape:cx="184.783"
     inkscape:cy="349.24955"
     inkscape:window-width="1366"
     inkscape:window-height="705"
     inkscape:window-x="-8"
     inkscape:window-y="-8"
     inkscape:window-maximized="1"
     inkscape:current-layer="g1">
    <inkscape:page
       x="0"
       y="0"
       width="206.28052"
       height="206.23074"
       id="page2"
       margin="0"
       bleed="0" />
  </sodipodi:namedview>
  <g
     inkscape:groupmode="layer"
     inkscape:label="Image"
     id="g1"
     transform="translate(-246.96704,-129.82318)">
    <path
       style="fill:#000000;stroke-width:1.36818"
       d="m 329.93945,335.13282 c -9.39735,-1.6859 -26.34014,-8.46085 -35.09638,-14.03406 -21.17132,-13.47522 -38.05705,-36.30578 -45.223,-61.14431 -3.44044,-11.92519 -3.55823,-40.73215 -0.21595,-52.81044 8.59484,-31.05987 30.6695,-56.49691 60.49338,-69.70761 17.15701,-7.59983 42.88236,-9.7542 63.92904,-5.35375 27.95296,5.84443 55.91446,28.37772 69.23381,55.7934 7.12985,14.6756 8.32268,19.232 9.73594,37.18977 1.36802,17.38281 -0.30307,29.94587 -5.99136,45.04251 -10.97268,29.12129 -37.54886,53.79472 -67.81871,62.96312 -9.02708,2.7342 -38.41221,3.96922 -49.04677,2.06137 z m 30.98678,-19.35658 c 0.903,-0.903 1.64181,-5.13808 1.64181,-9.41128 0,-7.48045 0.16541,-7.83711 4.44659,-9.58775 6.62974,-2.71101 18.81825,-14.7961 21.72853,-21.54416 1.73823,-4.03043 2.55669,-9.19425 2.55669,-16.13063 0,-11.71094 -2.68969,-18.45386 -9.72115,-24.37045 -5.01562,-4.22036 -17.17011,-10.53908 -25.16747,-13.08373 -8.16533,-2.5981 -15.92119,-6.78342 -18.67243,-10.07625 -4.54239,-5.43659 -2.42358,-15.65473 3.83768,-18.50756 7.83335,-3.56911 21.07858,0.29395 23.83646,6.95207 2.75577,6.653 4.90864,7.94706 13.22123,7.94706 7.82103,0 12.66568,-2.44918 12.66568,-6.40305 0,-1.03092 -1.23028,-5.37479 -2.73397,-9.65304 -3.22776,-9.18355 -11.63919,-18.45748 -20.18307,-22.25261 -5.79568,-2.5744 -5.81477,-2.60692 -5.81477,-9.91117 0,-4.03056 -0.73881,-8.06711 -1.64181,-8.97011 -2.16246,-2.16246 -19.18118,-2.16246 -21.34363,0 -0.903,0.903 -1.64182,5.13695 -1.64182,9.40878 v 7.76697 l -6.61025,2.84366 c -7.35706,3.16492 -17.18943,12.96481 -20.17362,20.10698 -2.29938,5.50318 -2.61334,24.6978 -0.49584,30.31429 3.41465,9.05708 13.83841,16.24666 35.30367,24.35001 18.19537,6.86893 23.93146,15.74021 16.07971,24.86842 -2.83908,3.30061 -4.24773,3.78993 -10.91057,3.78993 -8.51605,0 -13.93146,-2.94215 -17.02498,-9.24953 -2.51466,-5.12716 -6.05054,-6.58176 -14.85712,-6.11199 -10.46344,0.55814 -12.1964,3.10931 -8.82843,12.99674 3.80215,11.16208 9.15719,17.74174 18.8523,23.16356 l 8.66513,4.84581 v 7.33926 c 0,5.54639 0.5849,7.67992 2.39432,8.73382 3.35608,1.95473 18.59374,1.83333 20.59113,-0.16405 z"
       id="path15"
       inkscape:export-filename="infocash-logo-black-v2.png"
       inkscape:export-xdpi="96"
       inkscape:export-ydpi="96" />
  </g>
</svg>
