<?xml version="1.0" encoding="UTF-8" standalone="no"?>
<!-- Created with Inkscape (http://www.inkscape.org/) -->

<svg
   version="1.1"
   id="svg1"
   width="317.91055"
   height="238.02551"
   viewBox="0 0 317.91055 238.02551"
   sodipodi:docname="Captura_de_Tela__8_-removebg-preview.png"
   inkscape:export-filename="infocash-logo-white.png"
   inkscape:export-xdpi="96"
   inkscape:export-ydpi="96"
   inkscape:dataloss="true"
   xmlns:inkscape="http://www.inkscape.org/namespaces/inkscape"
   xmlns:sodipodi="http://sodipodi.sourceforge.net/DTD/sodipodi-0.dtd"
   xmlns="http://www.w3.org/2000/svg"
   xmlns:svg="http://www.w3.org/2000/svg">
  <defs
     id="defs1" />
  <sodipodi:namedview
     id="namedview1"
     pagecolor="#505050"
     bordercolor="#eeeeee"
     borderopacity="1"
     inkscape:showpageshadow="0"
     inkscape:pageopacity="0"
     inkscape:pagecheckerboard="0"
     inkscape:deskcolor="#505050"
     showgrid="false"
     inkscape:zoom="0.51682243"
     inkscape:cx="184.783"
     inkscape:cy="349.24955"
     inkscape:window-width="1366"
     inkscape:window-height="705"
     inkscape:window-x="-8"
     inkscape:window-y="-8"
     inkscape:window-maximized="1"
     inkscape:current-layer="g1">
    <inkscape:page
       x="0"
       y="0"
       width="317.91055"
       height="238.02551"
       id="page2"
       margin="0"
       bleed="0" />
  </sodipodi:namedview>
  <g
     inkscape:groupmode="layer"
     inkscape:label="Image"
     id="g1"
     transform="translate(-43.166622,-45.150216)">
    <path
       style="fill:#ffffff;stroke-width:1.36818"
       d="m 52.203239,279.45103 c -0.818295,-2.06937 -3.185341,-10.22716 -5.260104,-18.1284 -3.480081,-13.25307 -3.772621,-16.37961 -3.776487,-40.36135 -0.0037,-22.69409 0.40408,-27.64613 3.210604,-38.99317 C 59.790763,127.736 95.392016,83.638366 143.96054,61.096175 c 26.87505,-12.473561 42.93792,-15.94562 73.77119,-15.945958 23.38378,-2.56e-4 37.28734,1.958889 55.22044,7.781086 12.78119,4.149571 33.46073,14.333195 45.14998,22.234078 4.515,3.051733 8.84201,5.550566 9.61558,5.55296 0.77357,0.0024 5.89522,-3.654185 11.38146,-8.125734 10.18907,-8.304582 13.34242,-9.102222 14.5902,-3.690585 0.77273,3.351274 5.54052,43.234858 6.91593,57.852988 0.85796,9.11859 0.72801,9.83636 -1.93375,10.68117 -2.66583,0.8461 -55.14003,-14.74686 -62.80237,-18.66203 -4.84494,-2.47559 -3.69644,-5.43054 5.13068,-13.20049 4.515,-3.97427 8.2037,-7.959244 8.19712,-8.855501 -0.0139,-1.890421 -12.078,-9.807251 -23.9312,-15.704351 -4.515,-2.246262 -15.28943,-6.155175 -23.94317,-8.686473 -15.58498,-4.558749 -15.99339,-4.601856 -43.09771,-4.549118 -26.03537,0.05066 -27.99455,0.242205 -40.36135,3.946075 -16.72276,5.008485 -32.5214,12.322249 -45.27255,20.958301 C 76.388691,130.74711 51.799917,199.3687 70.723074,265.34174 l 2.133903,7.43957 -5.986454,5.17528 c -7.41085,6.40666 -12.519029,6.92713 -14.667284,1.49444 z"
       id="path26"
       inkscape:export-filename="infocash-arrow1-white.png"
       inkscape:export-xdpi="96"
       inkscape:export-ydpi="96" />
  </g>
</svg>
